<svg width="1940" height="343" viewBox="0 0 1940 343" fill="none" xmlns="http://www.w3.org/2000/svg">
<g clip-path="url(#clip0_0_26)">
<rect width="1940" height="343" fill="white"/>
<rect x="-3.89996" width="80.3148" height="20.5514" rx="3" fill="#E14646" fill-opacity="0.3"/>
<path d="M3.75291 14V3.81818H7.19325C7.98871 3.81818 8.64164 3.95407 9.15206 4.22585C9.66248 4.49432 10.0403 4.86387 10.2856 5.33452C10.5308 5.80516 10.6535 6.34044 10.6535 6.94034C10.6535 7.54025 10.5308 8.07221 10.2856 8.53622C10.0403 9.00024 9.66413 9.36482 9.15703 9.62997C8.64993 9.89181 8.00197 10.0227 7.21314 10.0227H4.42905V8.90909H7.17337C7.71693 8.90909 8.15443 8.82955 8.48587 8.67045C8.82062 8.51136 9.06257 8.28598 9.21172 7.99432C9.36418 7.69934 9.44041 7.34801 9.44041 6.94034C9.44041 6.53267 9.36418 6.17637 9.21172 5.87145C9.05926 5.56652 8.81565 5.3312 8.4809 5.16548C8.14614 4.99645 7.70367 4.91193 7.15348 4.91193H4.98587V14H3.75291ZM8.54553 9.42614L11.0512 14H9.61939L7.15348 9.42614H8.54553ZM15.6686 14.1591C14.9328 14.1591 14.2981 13.9967 13.7645 13.6719C13.2342 13.3438 12.8248 12.8864 12.5365 12.2997C12.2514 11.7098 12.1089 11.0237 12.1089 10.2415C12.1089 9.45928 12.2514 8.76989 12.5365 8.1733C12.8248 7.57339 13.2259 7.10606 13.7396 6.77131C14.2566 6.43324 14.8599 6.2642 15.5493 6.2642C15.947 6.2642 16.3397 6.33049 16.7275 6.46307C17.1153 6.59564 17.4683 6.81108 17.7865 7.10938C18.1047 7.40436 18.3582 7.79545 18.5471 8.28267C18.736 8.76989 18.8305 9.36979 18.8305 10.0824V10.5795H12.9441V9.56534H17.6373C17.6373 9.13447 17.5511 8.75 17.3788 8.41193C17.2098 8.07386 16.9678 7.80705 16.6529 7.61151C16.3414 7.41596 15.9735 7.31818 15.5493 7.31818C15.0819 7.31818 14.6776 7.43419 14.3362 7.66619C13.9981 7.89489 13.7379 8.19318 13.5556 8.56108C13.3734 8.92898 13.2822 9.32339 13.2822 9.74432V10.4205C13.2822 10.9972 13.3816 11.486 13.5805 11.8871C13.7827 12.2848 14.0627 12.5881 14.4207 12.7969C14.7787 13.0024 15.1946 13.1051 15.6686 13.1051C15.9768 13.1051 16.2552 13.062 16.5038 12.9759C16.7557 12.8864 16.9728 12.7538 17.1551 12.5781C17.3374 12.3991 17.4782 12.1771 17.5777 11.9119L18.7112 12.2301C18.5919 12.6146 18.3913 12.9527 18.1096 13.2443C17.8279 13.5327 17.4799 13.758 17.0656 13.9205C16.6513 14.0795 16.1856 14.1591 15.6686 14.1591ZM23.4988 14.1591C22.8625 14.1591 22.3007 13.9983 21.8135 13.6768C21.3262 13.352 20.9451 12.8946 20.67 12.3047C20.3949 11.7114 20.2574 11.0104 20.2574 10.2017C20.2574 9.39962 20.3949 8.7036 20.67 8.11364C20.9451 7.52367 21.3279 7.06794 21.8184 6.74645C22.309 6.42495 22.8757 6.2642 23.5187 6.2642C24.0159 6.2642 24.4086 6.34706 24.697 6.51278C24.9886 6.67519 25.2107 6.8608 25.3632 7.0696C25.519 7.27509 25.6399 7.44413 25.7261 7.5767H25.8255V3.81818H26.9988V14H25.8653V12.8267H25.7261C25.6399 12.9659 25.5173 13.1416 25.3582 13.3537C25.1991 13.5625 24.9721 13.7498 24.6771 13.9155C24.3821 14.0779 23.9894 14.1591 23.4988 14.1591ZM23.6579 13.1051C24.1286 13.1051 24.5263 12.9825 24.8511 12.7372C25.1759 12.4886 25.4228 12.1456 25.5919 11.7081C25.7609 11.2673 25.8454 10.7585 25.8454 10.1818C25.8454 9.61174 25.7626 9.11293 25.5968 8.68537C25.4311 8.2545 25.1859 7.91974 24.861 7.68111C24.5362 7.43916 24.1352 7.31818 23.6579 7.31818C23.1608 7.31818 22.7465 7.44579 22.415 7.70099C22.0869 7.95289 21.84 8.29593 21.6743 8.73011C21.5119 9.16098 21.4306 9.64489 21.4306 10.1818C21.4306 10.7254 21.5135 11.2192 21.6792 11.6634C21.8483 12.1042 22.0968 12.4555 22.425 12.7173C22.7564 12.9759 23.1674 13.1051 23.6579 13.1051ZM36.5691 6.36364V7.35795H32.6118V6.36364H36.5691ZM33.7652 4.53409H34.9385V11.8125C34.9385 12.1439 34.9865 12.3925 35.0826 12.5582C35.1821 12.7206 35.308 12.83 35.4605 12.8864C35.6163 12.9394 35.7803 12.9659 35.9527 12.9659C36.0819 12.9659 36.188 12.9593 36.2708 12.946C36.3537 12.9295 36.42 12.9162 36.4697 12.9062L36.7083 13.9602C36.6288 13.9901 36.5178 14.0199 36.3752 14.0497C36.2327 14.0829 36.0521 14.0994 35.8333 14.0994C35.5019 14.0994 35.1771 14.0282 34.8589 13.8857C34.544 13.7431 34.2822 13.526 34.0734 13.2344C33.8679 12.9427 33.7652 12.5748 33.7652 12.1307V4.53409ZM40.5812 14.179C40.0973 14.179 39.6582 14.0878 39.2637 13.9055C38.8693 13.7199 38.5561 13.4531 38.3241 13.1051C38.0921 12.7538 37.9761 12.3295 37.9761 11.8324C37.9761 11.3949 38.0623 11.0402 38.2346 10.7685C38.407 10.4934 38.6373 10.2779 38.9257 10.1222C39.214 9.96638 39.5322 9.85038 39.8802 9.77415C40.2315 9.6946 40.5845 9.63163 40.9392 9.58523C41.4032 9.52557 41.7794 9.48082 42.0677 9.45099C42.3594 9.41785 42.5715 9.36316 42.7041 9.28693C42.84 9.2107 42.9079 9.07812 42.9079 8.8892V8.84943C42.9079 8.3589 42.7737 7.97775 42.5052 7.70597C42.2401 7.43419 41.8374 7.2983 41.2971 7.2983C40.737 7.2983 40.2978 7.42093 39.9797 7.66619C39.6615 7.91146 39.4377 8.1733 39.3085 8.4517L38.1949 8.05398C38.3937 7.58996 38.6589 7.22869 38.9903 6.97017C39.3251 6.70833 39.6896 6.52604 40.0841 6.4233C40.4818 6.31723 40.8729 6.2642 41.2574 6.2642C41.5026 6.2642 41.7843 6.29403 42.1025 6.35369C42.424 6.41004 42.7339 6.5277 43.0322 6.70668C43.3338 6.88565 43.5841 7.15578 43.7829 7.51705C43.9818 7.87831 44.0812 8.36222 44.0812 8.96875V14H42.9079V12.9659H42.8483C42.7687 13.1316 42.6361 13.3089 42.4505 13.4979C42.2649 13.6868 42.018 13.8475 41.7098 13.9801C41.4015 14.1127 41.0253 14.179 40.5812 14.179ZM40.7602 13.125C41.2242 13.125 41.6153 13.0339 41.9335 12.8516C42.255 12.6693 42.4969 12.4339 42.6593 12.1456C42.8251 11.8572 42.9079 11.554 42.9079 11.2358V10.1619C42.8582 10.2216 42.7488 10.2763 42.5798 10.326C42.4141 10.3724 42.2218 10.4138 42.0031 10.4503C41.7877 10.4834 41.5772 10.5133 41.3717 10.5398C41.1695 10.563 41.0055 10.5829 40.8795 10.5994C40.5746 10.6392 40.2895 10.7038 40.0244 10.7933C39.7626 10.8795 39.5504 11.0104 39.388 11.1861C39.2289 11.3584 39.1494 11.5937 39.1494 11.892C39.1494 12.2997 39.3002 12.608 39.6018 12.8168C39.9067 13.0223 40.2929 13.125 40.7602 13.125ZM49.3051 17.0227C48.7384 17.0227 48.2511 16.9498 47.8435 16.804C47.4358 16.6615 47.0961 16.4725 46.8243 16.2372C46.5558 16.0052 46.342 15.7566 46.183 15.4915L47.1176 14.8352C47.2237 14.9744 47.3579 15.1335 47.5203 15.3125C47.6827 15.4948 47.9048 15.6522 48.1865 15.7848C48.4715 15.9207 48.8444 15.9886 49.3051 15.9886C49.9216 15.9886 50.4304 15.8395 50.8314 15.5412C51.2324 15.2429 51.433 14.7756 51.433 14.1392V12.5881H51.3335C51.2473 12.7273 51.1247 12.8996 50.9656 13.1051C50.8098 13.3073 50.5845 13.4879 50.2895 13.647C49.9978 13.8028 49.6034 13.8807 49.1063 13.8807C48.4898 13.8807 47.9363 13.7348 47.4457 13.4432C46.9585 13.1515 46.5724 12.7273 46.2874 12.1705C46.0056 11.6136 45.8648 10.9375 45.8648 10.142C45.8648 9.35985 46.0023 8.67874 46.2774 8.09872C46.5525 7.51539 46.9353 7.06463 47.4259 6.74645C47.9164 6.42495 48.4831 6.2642 49.1261 6.2642C49.6233 6.2642 50.0177 6.34706 50.3094 6.51278C50.6044 6.67519 50.8297 6.8608 50.9855 7.0696C51.1446 7.27509 51.2672 7.44413 51.3534 7.5767H51.4727V6.36364H52.6063V14.2188C52.6063 14.875 52.4571 15.4086 52.1588 15.8196C51.8638 16.2339 51.4661 16.5372 50.9656 16.7294C50.4685 16.925 49.915 17.0227 49.3051 17.0227ZM49.2653 12.8267C49.736 12.8267 50.1337 12.719 50.4585 12.5036C50.7833 12.2881 51.0303 11.9782 51.1993 11.5739C51.3683 11.1695 51.4528 10.6856 51.4528 10.1222C51.4528 9.57197 51.37 9.08641 51.2043 8.66548C51.0385 8.24455 50.7933 7.91477 50.4685 7.67614C50.1437 7.4375 49.7426 7.31818 49.2653 7.31818C48.7682 7.31818 48.3539 7.44413 48.0224 7.69602C47.6943 7.94792 47.4474 8.28598 47.2817 8.71023C47.1193 9.13447 47.0381 9.60511 47.0381 10.1222C47.0381 10.6525 47.1209 11.1214 47.2866 11.5291C47.4557 11.9335 47.7043 12.2517 48.0324 12.4837C48.3638 12.7124 48.7748 12.8267 49.2653 12.8267Z" fill="#37352F"/>
<path d="M-4.00006 0H1944V343H-4.00006V0Z" fill="#CCFFE2"/>
<path fill-rule="evenodd" clip-rule="evenodd" d="M1943.55 237.165V342.999H475.378C535.532 293.689 599.914 248.213 668.418 207.173C1082.63 -40.9792 1540.57 29.3665 1943.55 237.165Z" fill="#FFECEA"/>
<path fill-rule="evenodd" clip-rule="evenodd" d="M1373.87 169.08C1373.93 113.585 1408.92 58.5252 1467.21 46.2886C1518.96 35.4249 1554.8 83.747 1584.16 124.933C1611.76 163.654 1640.07 210.579 1611.16 248.223C1579.64 289.281 1518.29 294.69 1466.96 277.572C1415.17 260.296 1373.82 220.063 1373.87 169.08Z" fill="#0018A4"/>
<path fill-rule="evenodd" clip-rule="evenodd" d="M135.668 64.0355C166.613 63.0843 197.932 81.711 205.784 114.146C212.755 142.942 186.443 163.876 163.996 181.054C142.892 197.204 117.227 213.893 95.7255 198.369C72.2754 181.438 68.1763 147.166 76.8157 118.11C85.5344 88.7876 107.239 64.9093 135.668 64.0355Z" fill="white"/>
<rect x="-4" width="1944" height="100" fill="#0018A4"/>
<path d="M-76.3413 61.344H-64.8203V62H-82.5733V33.3H-81.9173V55.768H-76.9973V33.3H-76.3413V55.768H-64.8203V56.424H-76.3413V61.344ZM-81.9173 61.344H-76.9973V56.424H-81.9173V61.344ZM-52.4793 62.492C-58.7523 62.492 -63.8363 57.408 -63.8363 51.135C-63.8363 44.862 -58.7523 39.778 -52.4793 39.778C-46.2063 39.778 -41.1223 44.862 -41.1223 51.135C-41.1223 57.408 -46.2063 62.492 -52.4793 62.492ZM-52.4793 61.836C-46.5753 61.836 -41.7783 57.039 -41.7783 51.135C-41.7783 45.231 -46.5753 40.434 -52.4793 40.434C-58.3833 40.434 -63.1803 45.231 -63.1803 51.135C-63.1803 57.039 -58.3833 61.836 -52.4793 61.836ZM-52.4793 56.916C-55.6773 56.916 -58.2603 54.333 -58.2603 51.135C-58.2603 47.937 -55.6773 45.354 -52.4793 45.354C-49.2813 45.354 -46.6983 47.937 -46.6983 51.135C-46.6983 54.333 -49.2813 56.916 -52.4793 56.916ZM-52.4793 56.26C-49.6503 56.26 -47.3543 53.964 -47.3543 51.135C-47.3543 48.306 -49.6503 46.01 -52.4793 46.01C-55.3083 46.01 -57.6043 48.306 -57.6043 51.135C-57.6043 53.964 -55.3083 56.26 -52.4793 56.26ZM-28.0554 62.492C-34.3284 62.492 -39.4124 57.408 -39.4124 51.135C-39.4124 44.862 -34.3284 39.778 -28.0554 39.778C-21.7824 39.778 -16.6984 44.862 -16.6984 51.135C-16.6984 57.408 -21.7824 62.492 -28.0554 62.492ZM-28.0554 61.836C-22.1514 61.836 -17.3544 57.039 -17.3544 51.135C-17.3544 45.231 -22.1514 40.434 -28.0554 40.434C-33.9594 40.434 -38.7564 45.231 -38.7564 51.135C-38.7564 57.039 -33.9594 61.836 -28.0554 61.836ZM-28.0554 56.916C-31.2534 56.916 -33.8364 54.333 -33.8364 51.135C-33.8364 47.937 -31.2534 45.354 -28.0554 45.354C-24.8574 45.354 -22.2744 47.937 -22.2744 51.135C-22.2744 54.333 -24.8574 56.916 -28.0554 56.916ZM-28.0554 56.26C-25.2264 56.26 -22.9304 53.964 -22.9304 51.135C-22.9304 48.306 -25.2264 46.01 -28.0554 46.01C-30.8844 46.01 -33.1804 48.306 -33.1804 51.135C-33.1804 53.964 -30.8844 56.26 -28.0554 56.26ZM-8.18261 60.155V42.115C-10.9296 43.796 -13.1026 47.199 -13.1026 51.135C-13.1026 55.071 -10.9296 58.474 -8.18261 60.155ZM-2.40161 62.492C-4.24661 62.492 -5.96861 62.041 -7.52661 61.262V71.02H-8.18261V60.893C-10.4786 59.622 -12.2826 57.285 -13.1026 54.948V71.02H-13.7586V40.27H-13.1026V47.363C-12.2826 44.985 -10.4786 42.607 -8.18261 41.336V40.27H-7.52661V41.008C-5.96861 40.229 -4.24661 39.778 -2.40161 39.778C3.87139 39.778 8.95539 44.862 8.95539 51.135C8.95539 57.408 3.87139 62.492 -2.40161 62.492ZM-2.40161 56.916C-4.61561 56.916 -6.54261 55.645 -7.52661 53.8V60.524C-6.00961 61.344 -4.24661 61.836 -2.40161 61.836C3.50239 61.836 8.29939 57.039 8.29939 51.135C8.29939 45.231 3.50239 40.434 -2.40161 40.434C-4.24661 40.434 -6.00961 40.885 -7.52661 41.705V48.429C-6.54261 46.625 -4.61561 45.354 -2.40161 45.354C0.796391 45.354 3.37939 47.937 3.37939 51.135C3.37939 54.333 0.796391 56.916 -2.40161 56.916ZM-2.40161 46.01C-5.27161 46.01 -7.52661 48.306 -7.52661 51.135C-7.52661 53.964 -5.27161 56.26 -2.40161 56.26C0.427391 56.26 2.72339 53.964 2.72339 51.135C2.72339 48.306 0.427391 46.01 -2.40161 46.01ZM10.9224 46.953C10.9224 42.976 14.1204 39.778 18.0974 39.778C21.0494 39.778 23.5914 41.582 24.6984 44.124L24.0834 44.411C23.0994 42.074 20.7624 40.434 18.0974 40.434C14.4894 40.434 11.5784 43.345 11.5784 46.953C11.5784 50.028 13.6694 52.57 16.5394 53.308L18.3434 53.759C19.0404 53.923 19.5324 54.579 19.5324 55.317C19.5324 56.219 18.8354 56.916 17.9334 56.916C17.2364 56.916 16.6624 56.506 16.4164 55.85L17.0314 55.604C17.1544 55.973 17.4824 56.26 17.9334 56.26C18.4664 56.26 18.8764 55.85 18.8764 55.317C18.8764 54.866 18.6304 54.497 18.1794 54.374L16.3344 53.923C13.2184 53.144 10.9224 50.315 10.9224 46.953ZM11.3324 58.187L11.9474 57.9C12.9314 60.237 15.2274 61.836 17.9334 61.836C21.5414 61.836 24.4524 58.925 24.4524 55.317C24.4524 52.242 22.3614 49.7 19.4914 48.962L17.6874 48.511C16.9494 48.306 16.4984 47.691 16.4984 46.953C16.4984 46.051 17.1954 45.354 18.0974 45.354C18.7944 45.354 19.3684 45.805 19.5734 46.42L18.9994 46.666C18.8764 46.297 18.5074 46.01 18.0974 46.01C17.5644 46.01 17.1544 46.42 17.1544 46.953C17.1544 47.404 17.4004 47.773 17.8514 47.896L19.6964 48.347C22.8534 49.126 25.1084 51.955 25.1084 55.317C25.1084 59.294 21.9104 62.492 17.9334 62.492C14.9814 62.492 12.4394 60.729 11.3324 58.187ZM55.7088 61.959L55.2168 62.369L52.5928 59.499C49.9688 61.18 47.0168 62.492 44.2288 62.492C39.7598 62.492 35.8648 58.925 35.8648 54.456C35.8648 51.545 37.6278 48.757 40.0058 47.281L41.0308 46.625L40.8258 46.379C39.5958 44.985 38.7348 43.017 38.7348 40.967C38.7348 36.498 42.3838 32.808 46.8528 32.808C51.3218 32.808 54.9708 36.498 54.9708 40.967C54.9708 43.96 53.1258 46.379 50.8708 47.855L50.6248 48.019L53.3308 51.012C54.6428 49.782 55.5858 48.757 55.8728 48.429L56.3238 48.921C56.0368 49.208 55.0938 50.274 53.7408 51.504L57.0618 55.194C58.3738 54.046 59.3578 53.062 59.8088 52.611L60.2598 53.062C59.8088 53.513 58.8248 54.497 57.5128 55.686L59.9728 58.392L59.4808 58.802L57.0208 56.096C55.6268 57.285 54.4788 58.146 53.1668 59.13L55.7088 61.959ZM41.4818 47.158L40.3338 47.855C38.0788 49.249 36.5208 51.709 36.5208 54.456C36.5208 58.597 40.0878 61.836 44.2288 61.836C46.8528 61.836 49.6408 60.606 52.1418 59.007L48.8618 55.358C47.2628 56.383 45.6228 57.08 44.2288 57.08C42.8348 57.08 41.4408 55.85 41.4408 54.456C41.4408 53.39 41.9328 52.447 43.1218 51.75L44.7618 50.766L41.4818 47.158ZM45.8688 43.673L45.0488 42.771C44.4748 42.156 44.3108 41.541 44.3108 40.967C44.3108 39.573 45.4588 38.384 46.8528 38.384C48.2468 38.384 49.3948 39.573 49.3948 40.967C49.3948 41.951 48.6978 42.689 47.9188 43.181L46.8528 43.837L50.1738 47.527L50.3788 47.404C52.6748 46.01 54.3148 43.714 54.3148 40.967C54.3148 36.826 50.9938 33.464 46.8528 33.464C42.7118 33.464 39.3908 36.826 39.3908 40.967C39.3908 42.894 40.1288 44.657 41.3178 45.969L41.6048 46.297L45.8688 43.673ZM44.2288 56.424C45.4998 56.424 46.9758 55.768 48.4518 54.866L45.2128 51.258L43.4498 52.324C42.4658 52.939 42.0968 53.636 42.0968 54.456C42.0968 55.522 43.1628 56.424 44.2288 56.424ZM44.9668 40.967C44.9668 41.418 45.1308 41.91 45.5408 42.361L46.4018 43.345L47.5908 42.607C48.2468 42.197 48.7388 41.664 48.7388 40.967C48.7388 39.901 47.9188 39.04 46.8528 39.04C45.7868 39.04 44.9668 39.901 44.9668 40.967ZM50.0508 48.347L45.7868 50.93L48.9848 54.497C50.3378 53.554 51.6088 52.57 52.8388 51.463L50.0508 48.347ZM54.9708 56.957C55.6678 56.424 56.0368 56.096 56.5698 55.645L53.2898 51.914C52.1418 52.98 50.7888 54.046 49.4358 54.989L52.7158 58.638C53.3308 58.228 54.4788 57.326 54.9708 56.957ZM49.5998 47.855L46.3198 44.165L42.0558 46.789L45.3358 50.438L49.5998 47.855ZM69.8971 47.65C69.8971 39.491 76.5801 32.808 84.7391 32.808C92.8981 32.808 99.5811 39.491 99.5811 47.65C99.5811 55.809 92.8981 62.492 84.7391 62.492C76.5801 62.492 69.8971 55.809 69.8971 47.65ZM70.5531 47.65C70.5531 55.481 76.9081 61.836 84.7391 61.836C92.5701 61.836 98.9251 55.481 98.9251 47.65C98.9251 39.819 92.5701 33.464 84.7391 33.464C76.9081 33.464 70.5531 39.819 70.5531 47.65ZM76.1291 47.65C76.1291 52.365 80.0241 56.26 84.7391 56.26C89.4541 56.26 93.3491 52.365 93.3491 47.65C93.3491 42.935 89.4541 39.04 84.7391 39.04C80.0241 39.04 76.1291 42.935 76.1291 47.65ZM75.4731 47.65C75.4731 42.607 79.6961 38.384 84.7391 38.384C89.7821 38.384 94.0051 42.607 94.0051 47.65C94.0051 52.693 89.7821 56.916 84.7391 56.916C79.6961 56.916 75.4731 52.693 75.4731 47.65ZM113.622 62.492C107.308 62.492 102.224 57.367 102.224 51.135V31.25H102.88V47.363C103.741 44.985 105.504 42.689 107.8 41.418V31.25H108.456V41.008C110.014 40.229 111.777 39.778 113.622 39.778C119.895 39.778 124.979 44.862 124.979 51.135C124.979 57.408 119.895 62.492 113.622 62.492ZM113.622 56.916C110.424 56.916 107.8 54.292 107.8 51.135V42.156C105.053 43.837 102.88 47.24 102.88 51.176C102.88 57.039 107.636 61.836 113.622 61.836C119.526 61.836 124.323 57.039 124.323 51.135C124.323 45.231 119.526 40.434 113.622 40.434C111.777 40.434 109.973 40.926 108.456 41.746V48.511C109.44 46.625 111.408 45.354 113.622 45.354C116.82 45.354 119.403 47.937 119.403 51.135C119.403 54.333 116.82 56.916 113.622 56.916ZM113.622 46.01C110.752 46.01 108.456 48.306 108.456 51.135C108.456 53.964 110.752 56.26 113.622 56.26C116.451 56.26 118.747 53.964 118.747 51.135C118.747 48.306 116.451 46.01 113.622 46.01ZM134.664 40.27V63.722C134.664 67.699 131.384 71.02 127.407 71.02H124.209V70.364H127.407C131.056 70.364 134.008 67.371 134.008 63.722V40.27H134.664ZM124.209 64.788H127.407C127.981 64.788 128.432 64.296 128.432 63.722V40.27H129.088V63.722C129.088 64.624 128.391 65.444 127.407 65.444H124.209V64.788ZM129.088 31.25V38.138H128.432V31.25H129.088ZM134.008 38.138V31.25H134.664V38.138H134.008ZM137.6 51.135C137.6 44.862 142.684 39.778 148.957 39.778C153.959 39.778 158.182 42.976 159.699 47.486L146.374 55.563C147.153 56.014 148.014 56.26 148.957 56.26C151.007 56.26 152.77 55.03 153.59 53.308L154.205 53.595C153.303 55.563 151.294 56.916 148.957 56.916C147.768 56.916 146.661 56.547 145.759 55.932L141.331 58.638C143.258 60.606 145.964 61.836 148.957 61.836C153.221 61.836 156.952 59.294 158.674 55.645L159.248 55.932C157.444 59.827 153.508 62.492 148.957 62.492C142.684 62.492 137.6 57.408 137.6 51.135ZM138.256 51.135C138.256 52.324 138.461 53.431 138.789 54.497L143.217 51.791C143.176 51.586 143.176 51.34 143.176 51.135C143.176 47.937 145.759 45.354 148.957 45.354C150.146 45.354 151.294 45.723 152.196 46.338L156.583 43.673C154.656 41.664 151.95 40.434 148.957 40.434C143.053 40.434 138.256 45.231 138.256 51.135ZM139.035 55.112C139.486 56.219 140.101 57.244 140.88 58.146L145.185 55.522C144.283 54.743 143.627 53.677 143.34 52.488L139.035 55.112ZM143.832 51.135V51.422L151.581 46.707C150.802 46.256 149.9 46.01 148.957 46.01C146.128 46.01 143.832 48.306 143.832 51.135ZM143.914 52.16C144.16 53.349 144.857 54.415 145.8 55.153L154 50.151C153.754 48.962 153.098 47.896 152.155 47.117L143.914 52.16ZM152.77 46.789C153.672 47.568 154.328 48.593 154.574 49.823L158.92 47.158C158.469 46.051 157.813 45.067 157.075 44.165L152.77 46.789ZM172.558 45.846V46.502H171.369C168.868 46.502 166.736 48.634 166.736 51.135C166.736 53.636 168.868 55.768 171.369 55.768H172.558V56.424H171.369C168.499 56.424 166.08 54.005 166.08 51.135C166.08 48.265 168.499 45.846 171.369 45.846H172.558ZM172.558 40.926H171.369C165.752 40.926 161.16 45.518 161.16 51.135C161.16 56.752 165.752 61.344 171.369 61.344H172.558V62H171.369C165.383 62 160.504 57.121 160.504 51.135C160.504 45.149 165.383 40.27 171.369 40.27H172.558V40.926ZM178.077 40.926H174.838V40.27H178.077V33.3H178.733V40.27H183.653V33.3H184.309V40.27H187.548V40.926H184.309V45.846H187.548V46.502H184.309V62H183.653V46.502H178.733V62H178.077V46.502H174.838V45.846H178.077V40.926ZM183.653 40.926H178.733V45.846H183.653V40.926ZM189.537 46.953C189.537 42.976 192.735 39.778 196.712 39.778C199.664 39.778 202.206 41.582 203.313 44.124L202.698 44.411C201.714 42.074 199.377 40.434 196.712 40.434C193.104 40.434 190.193 43.345 190.193 46.953C190.193 50.028 192.284 52.57 195.154 53.308L196.958 53.759C197.655 53.923 198.147 54.579 198.147 55.317C198.147 56.219 197.45 56.916 196.548 56.916C195.851 56.916 195.277 56.506 195.031 55.85L195.646 55.604C195.769 55.973 196.097 56.26 196.548 56.26C197.081 56.26 197.491 55.85 197.491 55.317C197.491 54.866 197.245 54.497 196.794 54.374L194.949 53.923C191.833 53.144 189.537 50.315 189.537 46.953ZM189.947 58.187L190.562 57.9C191.546 60.237 193.842 61.836 196.548 61.836C200.156 61.836 203.067 58.925 203.067 55.317C203.067 52.242 200.976 49.7 198.106 48.962L196.302 48.511C195.564 48.306 195.113 47.691 195.113 46.953C195.113 46.051 195.81 45.354 196.712 45.354C197.409 45.354 197.983 45.805 198.188 46.42L197.614 46.666C197.491 46.297 197.122 46.01 196.712 46.01C196.179 46.01 195.769 46.42 195.769 46.953C195.769 47.404 196.015 47.773 196.466 47.896L198.311 48.347C201.468 49.126 203.723 51.955 203.723 55.317C203.723 59.294 200.525 62.492 196.548 62.492C193.596 62.492 191.054 60.729 189.947 58.187ZM222.31 61.344H233.831V62H216.078V33.3H216.734V55.768H221.654V33.3H222.31V55.768H233.831V56.424H222.31V61.344ZM216.734 61.344H221.654V56.424H216.734V61.344ZM246.172 62.492C239.899 62.492 234.815 57.408 234.815 51.135C234.815 44.862 239.899 39.778 246.172 39.778C252.445 39.778 257.529 44.862 257.529 51.135C257.529 57.408 252.445 62.492 246.172 62.492ZM246.172 61.836C252.076 61.836 256.873 57.039 256.873 51.135C256.873 45.231 252.076 40.434 246.172 40.434C240.268 40.434 235.471 45.231 235.471 51.135C235.471 57.039 240.268 61.836 246.172 61.836ZM246.172 56.916C242.974 56.916 240.391 54.333 240.391 51.135C240.391 47.937 242.974 45.354 246.172 45.354C249.37 45.354 251.953 47.937 251.953 51.135C251.953 54.333 249.37 56.916 246.172 56.916ZM246.172 56.26C249.001 56.26 251.297 53.964 251.297 51.135C251.297 48.306 249.001 46.01 246.172 46.01C243.343 46.01 241.047 48.306 241.047 51.135C241.047 53.964 243.343 56.26 246.172 56.26ZM270.596 62.492C264.323 62.492 259.239 57.408 259.239 51.135C259.239 44.862 264.323 39.778 270.596 39.778C276.869 39.778 281.953 44.862 281.953 51.135C281.953 57.408 276.869 62.492 270.596 62.492ZM270.596 61.836C276.5 61.836 281.297 57.039 281.297 51.135C281.297 45.231 276.5 40.434 270.596 40.434C264.692 40.434 259.895 45.231 259.895 51.135C259.895 57.039 264.692 61.836 270.596 61.836ZM270.596 56.916C267.398 56.916 264.815 54.333 264.815 51.135C264.815 47.937 267.398 45.354 270.596 45.354C273.794 45.354 276.377 47.937 276.377 51.135C276.377 54.333 273.794 56.916 270.596 56.916ZM270.596 56.26C273.425 56.26 275.721 53.964 275.721 51.135C275.721 48.306 273.425 46.01 270.596 46.01C267.767 46.01 265.471 48.306 265.471 51.135C265.471 53.964 267.767 56.26 270.596 56.26ZM290.469 60.155V42.115C287.722 43.796 285.549 47.199 285.549 51.135C285.549 55.071 287.722 58.474 290.469 60.155ZM296.25 62.492C294.405 62.492 292.683 62.041 291.125 61.262V71.02H290.469V60.893C288.173 59.622 286.369 57.285 285.549 54.948V71.02H284.893V40.27H285.549V47.363C286.369 44.985 288.173 42.607 290.469 41.336V40.27H291.125V41.008C292.683 40.229 294.405 39.778 296.25 39.778C302.523 39.778 307.607 44.862 307.607 51.135C307.607 57.408 302.523 62.492 296.25 62.492ZM296.25 56.916C294.036 56.916 292.109 55.645 291.125 53.8V60.524C292.642 61.344 294.405 61.836 296.25 61.836C302.154 61.836 306.951 57.039 306.951 51.135C306.951 45.231 302.154 40.434 296.25 40.434C294.405 40.434 292.642 40.885 291.125 41.705V48.429C292.109 46.625 294.036 45.354 296.25 45.354C299.448 45.354 302.031 47.937 302.031 51.135C302.031 54.333 299.448 56.916 296.25 56.916ZM296.25 46.01C293.38 46.01 291.125 48.306 291.125 51.135C291.125 53.964 293.38 56.26 296.25 56.26C299.079 56.26 301.375 53.964 301.375 51.135C301.375 48.306 299.079 46.01 296.25 46.01ZM309.574 46.953C309.574 42.976 312.772 39.778 316.749 39.778C319.701 39.778 322.243 41.582 323.35 44.124L322.735 44.411C321.751 42.074 319.414 40.434 316.749 40.434C313.141 40.434 310.23 43.345 310.23 46.953C310.23 50.028 312.321 52.57 315.191 53.308L316.995 53.759C317.692 53.923 318.184 54.579 318.184 55.317C318.184 56.219 317.487 56.916 316.585 56.916C315.888 56.916 315.314 56.506 315.068 55.85L315.683 55.604C315.806 55.973 316.134 56.26 316.585 56.26C317.118 56.26 317.528 55.85 317.528 55.317C317.528 54.866 317.282 54.497 316.831 54.374L314.986 53.923C311.87 53.144 309.574 50.315 309.574 46.953ZM309.984 58.187L310.599 57.9C311.583 60.237 313.879 61.836 316.585 61.836C320.193 61.836 323.104 58.925 323.104 55.317C323.104 52.242 321.013 49.7 318.143 48.962L316.339 48.511C315.601 48.306 315.15 47.691 315.15 46.953C315.15 46.051 315.847 45.354 316.749 45.354C317.446 45.354 318.02 45.805 318.225 46.42L317.651 46.666C317.528 46.297 317.159 46.01 316.749 46.01C316.216 46.01 315.806 46.42 315.806 46.953C315.806 47.404 316.052 47.773 316.503 47.896L318.348 48.347C321.505 49.126 323.76 51.955 323.76 55.317C323.76 59.294 320.562 62.492 316.585 62.492C313.633 62.492 311.091 60.729 309.984 58.187ZM354.36 61.959L353.868 62.369L351.244 59.499C348.62 61.18 345.668 62.492 342.88 62.492C338.411 62.492 334.516 58.925 334.516 54.456C334.516 51.545 336.279 48.757 338.657 47.281L339.682 46.625L339.477 46.379C338.247 44.985 337.386 43.017 337.386 40.967C337.386 36.498 341.035 32.808 345.504 32.808C349.973 32.808 353.622 36.498 353.622 40.967C353.622 43.96 351.777 46.379 349.522 47.855L349.276 48.019L351.982 51.012C353.294 49.782 354.237 48.757 354.524 48.429L354.975 48.921C354.688 49.208 353.745 50.274 352.392 51.504L355.713 55.194C357.025 54.046 358.009 53.062 358.46 52.611L358.911 53.062C358.46 53.513 357.476 54.497 356.164 55.686L358.624 58.392L358.132 58.802L355.672 56.096C354.278 57.285 353.13 58.146 351.818 59.13L354.36 61.959ZM340.133 47.158L338.985 47.855C336.73 49.249 335.172 51.709 335.172 54.456C335.172 58.597 338.739 61.836 342.88 61.836C345.504 61.836 348.292 60.606 350.793 59.007L347.513 55.358C345.914 56.383 344.274 57.08 342.88 57.08C341.486 57.08 340.092 55.85 340.092 54.456C340.092 53.39 340.584 52.447 341.773 51.75L343.413 50.766L340.133 47.158ZM344.52 43.673L343.7 42.771C343.126 42.156 342.962 41.541 342.962 40.967C342.962 39.573 344.11 38.384 345.504 38.384C346.898 38.384 348.046 39.573 348.046 40.967C348.046 41.951 347.349 42.689 346.57 43.181L345.504 43.837L348.825 47.527L349.03 47.404C351.326 46.01 352.966 43.714 352.966 40.967C352.966 36.826 349.645 33.464 345.504 33.464C341.363 33.464 338.042 36.826 338.042 40.967C338.042 42.894 338.78 44.657 339.969 45.969L340.256 46.297L344.52 43.673ZM342.88 56.424C344.151 56.424 345.627 55.768 347.103 54.866L343.864 51.258L342.101 52.324C341.117 52.939 340.748 53.636 340.748 54.456C340.748 55.522 341.814 56.424 342.88 56.424ZM343.618 40.967C343.618 41.418 343.782 41.91 344.192 42.361L345.053 43.345L346.242 42.607C346.898 42.197 347.39 41.664 347.39 40.967C347.39 39.901 346.57 39.04 345.504 39.04C344.438 39.04 343.618 39.901 343.618 40.967ZM348.702 48.347L344.438 50.93L347.636 54.497C348.989 53.554 350.26 52.57 351.49 51.463L348.702 48.347ZM353.622 56.957C354.319 56.424 354.688 56.096 355.221 55.645L351.941 51.914C350.793 52.98 349.44 54.046 348.087 54.989L351.367 58.638C351.982 58.228 353.13 57.326 353.622 56.957ZM348.251 47.855L344.971 44.165L340.707 46.789L343.987 50.438L348.251 47.855ZM368.548 47.65C368.548 39.491 375.231 32.808 383.39 32.808C391.549 32.808 398.232 39.491 398.232 47.65C398.232 55.809 391.549 62.492 383.39 62.492C375.231 62.492 368.548 55.809 368.548 47.65ZM369.204 47.65C369.204 55.481 375.559 61.836 383.39 61.836C391.221 61.836 397.576 55.481 397.576 47.65C397.576 39.819 391.221 33.464 383.39 33.464C375.559 33.464 369.204 39.819 369.204 47.65ZM374.78 47.65C374.78 52.365 378.675 56.26 383.39 56.26C388.105 56.26 392 52.365 392 47.65C392 42.935 388.105 39.04 383.39 39.04C378.675 39.04 374.78 42.935 374.78 47.65ZM374.124 47.65C374.124 42.607 378.347 38.384 383.39 38.384C388.433 38.384 392.656 42.607 392.656 47.65C392.656 52.693 388.433 56.916 383.39 56.916C378.347 56.916 374.124 52.693 374.124 47.65ZM412.273 62.492C405.959 62.492 400.875 57.367 400.875 51.135V31.25H401.531V47.363C402.392 44.985 404.155 42.689 406.451 41.418V31.25H407.107V41.008C408.665 40.229 410.428 39.778 412.273 39.778C418.546 39.778 423.63 44.862 423.63 51.135C423.63 57.408 418.546 62.492 412.273 62.492ZM412.273 56.916C409.075 56.916 406.451 54.292 406.451 51.135V42.156C403.704 43.837 401.531 47.24 401.531 51.176C401.531 57.039 406.287 61.836 412.273 61.836C418.177 61.836 422.974 57.039 422.974 51.135C422.974 45.231 418.177 40.434 412.273 40.434C410.428 40.434 408.624 40.926 407.107 41.746V48.511C408.091 46.625 410.059 45.354 412.273 45.354C415.471 45.354 418.054 47.937 418.054 51.135C418.054 54.333 415.471 56.916 412.273 56.916ZM412.273 46.01C409.403 46.01 407.107 48.306 407.107 51.135C407.107 53.964 409.403 56.26 412.273 56.26C415.102 56.26 417.398 53.964 417.398 51.135C417.398 48.306 415.102 46.01 412.273 46.01ZM433.315 40.27V63.722C433.315 67.699 430.035 71.02 426.058 71.02H422.86V70.364H426.058C429.707 70.364 432.659 67.371 432.659 63.722V40.27H433.315ZM422.86 64.788H426.058C426.632 64.788 427.083 64.296 427.083 63.722V40.27H427.739V63.722C427.739 64.624 427.042 65.444 426.058 65.444H422.86V64.788ZM427.739 31.25V38.138H427.083V31.25H427.739ZM432.659 38.138V31.25H433.315V38.138H432.659ZM436.252 51.135C436.252 44.862 441.336 39.778 447.609 39.778C452.611 39.778 456.834 42.976 458.351 47.486L445.026 55.563C445.805 56.014 446.666 56.26 447.609 56.26C449.659 56.26 451.422 55.03 452.242 53.308L452.857 53.595C451.955 55.563 449.946 56.916 447.609 56.916C446.42 56.916 445.313 56.547 444.411 55.932L439.983 58.638C441.91 60.606 444.616 61.836 447.609 61.836C451.873 61.836 455.604 59.294 457.326 55.645L457.9 55.932C456.096 59.827 452.16 62.492 447.609 62.492C441.336 62.492 436.252 57.408 436.252 51.135ZM436.908 51.135C436.908 52.324 437.113 53.431 437.441 54.497L441.869 51.791C441.828 51.586 441.828 51.34 441.828 51.135C441.828 47.937 444.411 45.354 447.609 45.354C448.798 45.354 449.946 45.723 450.848 46.338L455.235 43.673C453.308 41.664 450.602 40.434 447.609 40.434C441.705 40.434 436.908 45.231 436.908 51.135ZM437.687 55.112C438.138 56.219 438.753 57.244 439.532 58.146L443.837 55.522C442.935 54.743 442.279 53.677 441.992 52.488L437.687 55.112ZM442.484 51.135V51.422L450.233 46.707C449.454 46.256 448.552 46.01 447.609 46.01C444.78 46.01 442.484 48.306 442.484 51.135ZM442.566 52.16C442.812 53.349 443.509 54.415 444.452 55.153L452.652 50.151C452.406 48.962 451.75 47.896 450.807 47.117L442.566 52.16ZM451.422 46.789C452.324 47.568 452.98 48.593 453.226 49.823L457.572 47.158C457.121 46.051 456.465 45.067 455.727 44.165L451.422 46.789ZM471.209 45.846V46.502H470.02C467.519 46.502 465.387 48.634 465.387 51.135C465.387 53.636 467.519 55.768 470.02 55.768H471.209V56.424H470.02C467.15 56.424 464.731 54.005 464.731 51.135C464.731 48.265 467.15 45.846 470.02 45.846H471.209ZM471.209 40.926H470.02C464.403 40.926 459.811 45.518 459.811 51.135C459.811 56.752 464.403 61.344 470.02 61.344H471.209V62H470.02C464.034 62 459.155 57.121 459.155 51.135C459.155 45.149 464.034 40.27 470.02 40.27H471.209V40.926ZM476.728 40.926H473.489V40.27H476.728V33.3H477.384V40.27H482.304V33.3H482.96V40.27H486.199V40.926H482.96V45.846H486.199V46.502H482.96V62H482.304V46.502H477.384V62H476.728V46.502H473.489V45.846H476.728V40.926ZM482.304 40.926H477.384V45.846H482.304V40.926ZM488.188 46.953C488.188 42.976 491.386 39.778 495.363 39.778C498.315 39.778 500.857 41.582 501.964 44.124L501.349 44.411C500.365 42.074 498.028 40.434 495.363 40.434C491.755 40.434 488.844 43.345 488.844 46.953C488.844 50.028 490.935 52.57 493.805 53.308L495.609 53.759C496.306 53.923 496.798 54.579 496.798 55.317C496.798 56.219 496.101 56.916 495.199 56.916C494.502 56.916 493.928 56.506 493.682 55.85L494.297 55.604C494.42 55.973 494.748 56.26 495.199 56.26C495.732 56.26 496.142 55.85 496.142 55.317C496.142 54.866 495.896 54.497 495.445 54.374L493.6 53.923C490.484 53.144 488.188 50.315 488.188 46.953ZM488.598 58.187L489.213 57.9C490.197 60.237 492.493 61.836 495.199 61.836C498.807 61.836 501.718 58.925 501.718 55.317C501.718 52.242 499.627 49.7 496.757 48.962L494.953 48.511C494.215 48.306 493.764 47.691 493.764 46.953C493.764 46.051 494.461 45.354 495.363 45.354C496.06 45.354 496.634 45.805 496.839 46.42L496.265 46.666C496.142 46.297 495.773 46.01 495.363 46.01C494.83 46.01 494.42 46.42 494.42 46.953C494.42 47.404 494.666 47.773 495.117 47.896L496.962 48.347C500.119 49.126 502.374 51.955 502.374 55.317C502.374 59.294 499.176 62.492 495.199 62.492C492.247 62.492 489.705 60.729 488.598 58.187ZM520.961 61.344H532.482V62H514.729V33.3H515.385V55.768H520.305V33.3H520.961V55.768H532.482V56.424H520.961V61.344ZM515.385 61.344H520.305V56.424H515.385V61.344ZM544.823 62.492C538.55 62.492 533.466 57.408 533.466 51.135C533.466 44.862 538.55 39.778 544.823 39.778C551.096 39.778 556.18 44.862 556.18 51.135C556.18 57.408 551.096 62.492 544.823 62.492ZM544.823 61.836C550.727 61.836 555.524 57.039 555.524 51.135C555.524 45.231 550.727 40.434 544.823 40.434C538.919 40.434 534.122 45.231 534.122 51.135C534.122 57.039 538.919 61.836 544.823 61.836ZM544.823 56.916C541.625 56.916 539.042 54.333 539.042 51.135C539.042 47.937 541.625 45.354 544.823 45.354C548.021 45.354 550.604 47.937 550.604 51.135C550.604 54.333 548.021 56.916 544.823 56.916ZM544.823 56.26C547.652 56.26 549.948 53.964 549.948 51.135C549.948 48.306 547.652 46.01 544.823 46.01C541.994 46.01 539.698 48.306 539.698 51.135C539.698 53.964 541.994 56.26 544.823 56.26ZM569.247 62.492C562.974 62.492 557.89 57.408 557.89 51.135C557.89 44.862 562.974 39.778 569.247 39.778C575.52 39.778 580.604 44.862 580.604 51.135C580.604 57.408 575.52 62.492 569.247 62.492ZM569.247 61.836C575.151 61.836 579.948 57.039 579.948 51.135C579.948 45.231 575.151 40.434 569.247 40.434C563.343 40.434 558.546 45.231 558.546 51.135C558.546 57.039 563.343 61.836 569.247 61.836ZM569.247 56.916C566.049 56.916 563.466 54.333 563.466 51.135C563.466 47.937 566.049 45.354 569.247 45.354C572.445 45.354 575.028 47.937 575.028 51.135C575.028 54.333 572.445 56.916 569.247 56.916ZM569.247 56.26C572.076 56.26 574.372 53.964 574.372 51.135C574.372 48.306 572.076 46.01 569.247 46.01C566.418 46.01 564.122 48.306 564.122 51.135C564.122 53.964 566.418 56.26 569.247 56.26ZM589.12 60.155V42.115C586.373 43.796 584.2 47.199 584.2 51.135C584.2 55.071 586.373 58.474 589.12 60.155ZM594.901 62.492C593.056 62.492 591.334 62.041 589.776 61.262V71.02H589.12V60.893C586.824 59.622 585.02 57.285 584.2 54.948V71.02H583.544V40.27H584.2V47.363C585.02 44.985 586.824 42.607 589.12 41.336V40.27H589.776V41.008C591.334 40.229 593.056 39.778 594.901 39.778C601.174 39.778 606.258 44.862 606.258 51.135C606.258 57.408 601.174 62.492 594.901 62.492ZM594.901 56.916C592.687 56.916 590.76 55.645 589.776 53.8V60.524C591.293 61.344 593.056 61.836 594.901 61.836C600.805 61.836 605.602 57.039 605.602 51.135C605.602 45.231 600.805 40.434 594.901 40.434C593.056 40.434 591.293 40.885 589.776 41.705V48.429C590.76 46.625 592.687 45.354 594.901 45.354C598.099 45.354 600.682 47.937 600.682 51.135C600.682 54.333 598.099 56.916 594.901 56.916ZM594.901 46.01C592.031 46.01 589.776 48.306 589.776 51.135C589.776 53.964 592.031 56.26 594.901 56.26C597.73 56.26 600.026 53.964 600.026 51.135C600.026 48.306 597.73 46.01 594.901 46.01ZM608.225 46.953C608.225 42.976 611.423 39.778 615.4 39.778C618.352 39.778 620.894 41.582 622.001 44.124L621.386 44.411C620.402 42.074 618.065 40.434 615.4 40.434C611.792 40.434 608.881 43.345 608.881 46.953C608.881 50.028 610.972 52.57 613.842 53.308L615.646 53.759C616.343 53.923 616.835 54.579 616.835 55.317C616.835 56.219 616.138 56.916 615.236 56.916C614.539 56.916 613.965 56.506 613.719 55.85L614.334 55.604C614.457 55.973 614.785 56.26 615.236 56.26C615.769 56.26 616.179 55.85 616.179 55.317C616.179 54.866 615.933 54.497 615.482 54.374L613.637 53.923C610.521 53.144 608.225 50.315 608.225 46.953ZM608.635 58.187L609.25 57.9C610.234 60.237 612.53 61.836 615.236 61.836C618.844 61.836 621.755 58.925 621.755 55.317C621.755 52.242 619.664 49.7 616.794 48.962L614.99 48.511C614.252 48.306 613.801 47.691 613.801 46.953C613.801 46.051 614.498 45.354 615.4 45.354C616.097 45.354 616.671 45.805 616.876 46.42L616.302 46.666C616.179 46.297 615.81 46.01 615.4 46.01C614.867 46.01 614.457 46.42 614.457 46.953C614.457 47.404 614.703 47.773 615.154 47.896L616.999 48.347C620.156 49.126 622.411 51.955 622.411 55.317C622.411 59.294 619.213 62.492 615.236 62.492C612.284 62.492 609.742 60.729 608.635 58.187ZM653.012 61.959L652.52 62.369L649.896 59.499C647.272 61.18 644.32 62.492 641.532 62.492C637.063 62.492 633.168 58.925 633.168 54.456C633.168 51.545 634.931 48.757 637.309 47.281L638.334 46.625L638.129 46.379C636.899 44.985 636.038 43.017 636.038 40.967C636.038 36.498 639.687 32.808 644.156 32.808C648.625 32.808 652.274 36.498 652.274 40.967C652.274 43.96 650.429 46.379 648.174 47.855L647.928 48.019L650.634 51.012C651.946 49.782 652.889 48.757 653.176 48.429L653.627 48.921C653.34 49.208 652.397 50.274 651.044 51.504L654.365 55.194C655.677 54.046 656.661 53.062 657.112 52.611L657.563 53.062C657.112 53.513 656.128 54.497 654.816 55.686L657.276 58.392L656.784 58.802L654.324 56.096C652.93 57.285 651.782 58.146 650.47 59.13L653.012 61.959ZM638.785 47.158L637.637 47.855C635.382 49.249 633.824 51.709 633.824 54.456C633.824 58.597 637.391 61.836 641.532 61.836C644.156 61.836 646.944 60.606 649.445 59.007L646.165 55.358C644.566 56.383 642.926 57.08 641.532 57.08C640.138 57.08 638.744 55.85 638.744 54.456C638.744 53.39 639.236 52.447 640.425 51.75L642.065 50.766L638.785 47.158ZM643.172 43.673L642.352 42.771C641.778 42.156 641.614 41.541 641.614 40.967C641.614 39.573 642.762 38.384 644.156 38.384C645.55 38.384 646.698 39.573 646.698 40.967C646.698 41.951 646.001 42.689 645.222 43.181L644.156 43.837L647.477 47.527L647.682 47.404C649.978 46.01 651.618 43.714 651.618 40.967C651.618 36.826 648.297 33.464 644.156 33.464C640.015 33.464 636.694 36.826 636.694 40.967C636.694 42.894 637.432 44.657 638.621 45.969L638.908 46.297L643.172 43.673ZM641.532 56.424C642.803 56.424 644.279 55.768 645.755 54.866L642.516 51.258L640.753 52.324C639.769 52.939 639.4 53.636 639.4 54.456C639.4 55.522 640.466 56.424 641.532 56.424ZM642.27 40.967C642.27 41.418 642.434 41.91 642.844 42.361L643.705 43.345L644.894 42.607C645.55 42.197 646.042 41.664 646.042 40.967C646.042 39.901 645.222 39.04 644.156 39.04C643.09 39.04 642.27 39.901 642.27 40.967ZM647.354 48.347L643.09 50.93L646.288 54.497C647.641 53.554 648.912 52.57 650.142 51.463L647.354 48.347ZM652.274 56.957C652.971 56.424 653.34 56.096 653.873 55.645L650.593 51.914C649.445 52.98 648.092 54.046 646.739 54.989L650.019 58.638C650.634 58.228 651.782 57.326 652.274 56.957ZM646.903 47.855L643.623 44.165L639.359 46.789L642.639 50.438L646.903 47.855ZM667.2 47.65C667.2 39.491 673.883 32.808 682.042 32.808C690.201 32.808 696.884 39.491 696.884 47.65C696.884 55.809 690.201 62.492 682.042 62.492C673.883 62.492 667.2 55.809 667.2 47.65ZM667.856 47.65C667.856 55.481 674.211 61.836 682.042 61.836C689.873 61.836 696.228 55.481 696.228 47.65C696.228 39.819 689.873 33.464 682.042 33.464C674.211 33.464 667.856 39.819 667.856 47.65ZM673.432 47.65C673.432 52.365 677.327 56.26 682.042 56.26C686.757 56.26 690.652 52.365 690.652 47.65C690.652 42.935 686.757 39.04 682.042 39.04C677.327 39.04 673.432 42.935 673.432 47.65ZM672.776 47.65C672.776 42.607 676.999 38.384 682.042 38.384C687.085 38.384 691.308 42.607 691.308 47.65C691.308 52.693 687.085 56.916 682.042 56.916C676.999 56.916 672.776 52.693 672.776 47.65ZM710.925 62.492C704.611 62.492 699.527 57.367 699.527 51.135V31.25H700.183V47.363C701.044 44.985 702.807 42.689 705.103 41.418V31.25H705.759V41.008C707.317 40.229 709.08 39.778 710.925 39.778C717.198 39.778 722.282 44.862 722.282 51.135C722.282 57.408 717.198 62.492 710.925 62.492ZM710.925 56.916C707.727 56.916 705.103 54.292 705.103 51.135V42.156C702.356 43.837 700.183 47.24 700.183 51.176C700.183 57.039 704.939 61.836 710.925 61.836C716.829 61.836 721.626 57.039 721.626 51.135C721.626 45.231 716.829 40.434 710.925 40.434C709.08 40.434 707.276 40.926 705.759 41.746V48.511C706.743 46.625 708.711 45.354 710.925 45.354C714.123 45.354 716.706 47.937 716.706 51.135C716.706 54.333 714.123 56.916 710.925 56.916ZM710.925 46.01C708.055 46.01 705.759 48.306 705.759 51.135C705.759 53.964 708.055 56.26 710.925 56.26C713.754 56.26 716.05 53.964 716.05 51.135C716.05 48.306 713.754 46.01 710.925 46.01ZM731.966 40.27V63.722C731.966 67.699 728.686 71.02 724.709 71.02H721.511V70.364H724.709C728.358 70.364 731.31 67.371 731.31 63.722V40.27H731.966ZM721.511 64.788H724.709C725.283 64.788 725.734 64.296 725.734 63.722V40.27H726.39V63.722C726.39 64.624 725.693 65.444 724.709 65.444H721.511V64.788ZM726.39 31.25V38.138H725.734V31.25H726.39ZM731.31 38.138V31.25H731.966V38.138H731.31ZM734.903 51.135C734.903 44.862 739.987 39.778 746.26 39.778C751.262 39.778 755.485 42.976 757.002 47.486L743.677 55.563C744.456 56.014 745.317 56.26 746.26 56.26C748.31 56.26 750.073 55.03 750.893 53.308L751.508 53.595C750.606 55.563 748.597 56.916 746.26 56.916C745.071 56.916 743.964 56.547 743.062 55.932L738.634 58.638C740.561 60.606 743.267 61.836 746.26 61.836C750.524 61.836 754.255 59.294 755.977 55.645L756.551 55.932C754.747 59.827 750.811 62.492 746.26 62.492C739.987 62.492 734.903 57.408 734.903 51.135ZM735.559 51.135C735.559 52.324 735.764 53.431 736.092 54.497L740.52 51.791C740.479 51.586 740.479 51.34 740.479 51.135C740.479 47.937 743.062 45.354 746.26 45.354C747.449 45.354 748.597 45.723 749.499 46.338L753.886 43.673C751.959 41.664 749.253 40.434 746.26 40.434C740.356 40.434 735.559 45.231 735.559 51.135ZM736.338 55.112C736.789 56.219 737.404 57.244 738.183 58.146L742.488 55.522C741.586 54.743 740.93 53.677 740.643 52.488L736.338 55.112ZM741.135 51.135V51.422L748.884 46.707C748.105 46.256 747.203 46.01 746.26 46.01C743.431 46.01 741.135 48.306 741.135 51.135ZM741.217 52.16C741.463 53.349 742.16 54.415 743.103 55.153L751.303 50.151C751.057 48.962 750.401 47.896 749.458 47.117L741.217 52.16ZM750.073 46.789C750.975 47.568 751.631 48.593 751.877 49.823L756.223 47.158C755.772 46.051 755.116 45.067 754.378 44.165L750.073 46.789ZM769.86 45.846V46.502H768.671C766.17 46.502 764.038 48.634 764.038 51.135C764.038 53.636 766.17 55.768 768.671 55.768H769.86V56.424H768.671C765.801 56.424 763.382 54.005 763.382 51.135C763.382 48.265 765.801 45.846 768.671 45.846H769.86ZM769.86 40.926H768.671C763.054 40.926 758.462 45.518 758.462 51.135C758.462 56.752 763.054 61.344 768.671 61.344H769.86V62H768.671C762.685 62 757.806 57.121 757.806 51.135C757.806 45.149 762.685 40.27 768.671 40.27H769.86V40.926ZM775.379 40.926H772.14V40.27H775.379V33.3H776.035V40.27H780.955V33.3H781.611V40.27H784.85V40.926H781.611V45.846H784.85V46.502H781.611V62H780.955V46.502H776.035V62H775.379V46.502H772.14V45.846H775.379V40.926ZM780.955 40.926H776.035V45.846H780.955V40.926ZM786.839 46.953C786.839 42.976 790.037 39.778 794.014 39.778C796.966 39.778 799.508 41.582 800.615 44.124L800 44.411C799.016 42.074 796.679 40.434 794.014 40.434C790.406 40.434 787.495 43.345 787.495 46.953C787.495 50.028 789.586 52.57 792.456 53.308L794.26 53.759C794.957 53.923 795.449 54.579 795.449 55.317C795.449 56.219 794.752 56.916 793.85 56.916C793.153 56.916 792.579 56.506 792.333 55.85L792.948 55.604C793.071 55.973 793.399 56.26 793.85 56.26C794.383 56.26 794.793 55.85 794.793 55.317C794.793 54.866 794.547 54.497 794.096 54.374L792.251 53.923C789.135 53.144 786.839 50.315 786.839 46.953ZM787.249 58.187L787.864 57.9C788.848 60.237 791.144 61.836 793.85 61.836C797.458 61.836 800.369 58.925 800.369 55.317C800.369 52.242 798.278 49.7 795.408 48.962L793.604 48.511C792.866 48.306 792.415 47.691 792.415 46.953C792.415 46.051 793.112 45.354 794.014 45.354C794.711 45.354 795.285 45.805 795.49 46.42L794.916 46.666C794.793 46.297 794.424 46.01 794.014 46.01C793.481 46.01 793.071 46.42 793.071 46.953C793.071 47.404 793.317 47.773 793.768 47.896L795.613 48.347C798.77 49.126 801.025 51.955 801.025 55.317C801.025 59.294 797.827 62.492 793.85 62.492C790.898 62.492 788.356 60.729 787.249 58.187ZM819.613 61.344H831.134V62H813.381V33.3H814.037V55.768H818.957V33.3H819.613V55.768H831.134V56.424H819.613V61.344ZM814.037 61.344H818.957V56.424H814.037V61.344ZM843.475 62.492C837.202 62.492 832.118 57.408 832.118 51.135C832.118 44.862 837.202 39.778 843.475 39.778C849.748 39.778 854.832 44.862 854.832 51.135C854.832 57.408 849.748 62.492 843.475 62.492ZM843.475 61.836C849.379 61.836 854.176 57.039 854.176 51.135C854.176 45.231 849.379 40.434 843.475 40.434C837.571 40.434 832.774 45.231 832.774 51.135C832.774 57.039 837.571 61.836 843.475 61.836ZM843.475 56.916C840.277 56.916 837.694 54.333 837.694 51.135C837.694 47.937 840.277 45.354 843.475 45.354C846.673 45.354 849.256 47.937 849.256 51.135C849.256 54.333 846.673 56.916 843.475 56.916ZM843.475 56.26C846.304 56.26 848.6 53.964 848.6 51.135C848.6 48.306 846.304 46.01 843.475 46.01C840.646 46.01 838.35 48.306 838.35 51.135C838.35 53.964 840.646 56.26 843.475 56.26ZM867.899 62.492C861.626 62.492 856.542 57.408 856.542 51.135C856.542 44.862 861.626 39.778 867.899 39.778C874.172 39.778 879.256 44.862 879.256 51.135C879.256 57.408 874.172 62.492 867.899 62.492ZM867.899 61.836C873.803 61.836 878.6 57.039 878.6 51.135C878.6 45.231 873.803 40.434 867.899 40.434C861.995 40.434 857.198 45.231 857.198 51.135C857.198 57.039 861.995 61.836 867.899 61.836ZM867.899 56.916C864.701 56.916 862.118 54.333 862.118 51.135C862.118 47.937 864.701 45.354 867.899 45.354C871.097 45.354 873.68 47.937 873.68 51.135C873.68 54.333 871.097 56.916 867.899 56.916ZM867.899 56.26C870.728 56.26 873.024 53.964 873.024 51.135C873.024 48.306 870.728 46.01 867.899 46.01C865.07 46.01 862.774 48.306 862.774 51.135C862.774 53.964 865.07 56.26 867.899 56.26ZM887.771 60.155V42.115C885.024 43.796 882.851 47.199 882.851 51.135C882.851 55.071 885.024 58.474 887.771 60.155ZM893.552 62.492C891.707 62.492 889.985 62.041 888.427 61.262V71.02H887.771V60.893C885.475 59.622 883.671 57.285 882.851 54.948V71.02H882.195V40.27H882.851V47.363C883.671 44.985 885.475 42.607 887.771 41.336V40.27H888.427V41.008C889.985 40.229 891.707 39.778 893.552 39.778C899.825 39.778 904.909 44.862 904.909 51.135C904.909 57.408 899.825 62.492 893.552 62.492ZM893.552 56.916C891.338 56.916 889.411 55.645 888.427 53.8V60.524C889.944 61.344 891.707 61.836 893.552 61.836C899.456 61.836 904.253 57.039 904.253 51.135C904.253 45.231 899.456 40.434 893.552 40.434C891.707 40.434 889.944 40.885 888.427 41.705V48.429C889.411 46.625 891.338 45.354 893.552 45.354C896.75 45.354 899.333 47.937 899.333 51.135C899.333 54.333 896.75 56.916 893.552 56.916ZM893.552 46.01C890.682 46.01 888.427 48.306 888.427 51.135C888.427 53.964 890.682 56.26 893.552 56.26C896.381 56.26 898.677 53.964 898.677 51.135C898.677 48.306 896.381 46.01 893.552 46.01ZM906.877 46.953C906.877 42.976 910.075 39.778 914.052 39.778C917.004 39.778 919.546 41.582 920.653 44.124L920.038 44.411C919.054 42.074 916.717 40.434 914.052 40.434C910.444 40.434 907.533 43.345 907.533 46.953C907.533 50.028 909.624 52.57 912.494 53.308L914.298 53.759C914.995 53.923 915.487 54.579 915.487 55.317C915.487 56.219 914.79 56.916 913.888 56.916C913.191 56.916 912.617 56.506 912.371 55.85L912.986 55.604C913.109 55.973 913.437 56.26 913.888 56.26C914.421 56.26 914.831 55.85 914.831 55.317C914.831 54.866 914.585 54.497 914.134 54.374L912.289 53.923C909.173 53.144 906.877 50.315 906.877 46.953ZM907.287 58.187L907.902 57.9C908.886 60.237 911.182 61.836 913.888 61.836C917.496 61.836 920.407 58.925 920.407 55.317C920.407 52.242 918.316 49.7 915.446 48.962L913.642 48.511C912.904 48.306 912.453 47.691 912.453 46.953C912.453 46.051 913.15 45.354 914.052 45.354C914.749 45.354 915.323 45.805 915.528 46.42L914.954 46.666C914.831 46.297 914.462 46.01 914.052 46.01C913.519 46.01 913.109 46.42 913.109 46.953C913.109 47.404 913.355 47.773 913.806 47.896L915.651 48.347C918.808 49.126 921.063 51.955 921.063 55.317C921.063 59.294 917.865 62.492 913.888 62.492C910.936 62.492 908.394 60.729 907.287 58.187ZM951.663 61.959L951.171 62.369L948.547 59.499C945.923 61.18 942.971 62.492 940.183 62.492C935.714 62.492 931.819 58.925 931.819 54.456C931.819 51.545 933.582 48.757 935.96 47.281L936.985 46.625L936.78 46.379C935.55 44.985 934.689 43.017 934.689 40.967C934.689 36.498 938.338 32.808 942.807 32.808C947.276 32.808 950.925 36.498 950.925 40.967C950.925 43.96 949.08 46.379 946.825 47.855L946.579 48.019L949.285 51.012C950.597 49.782 951.54 48.757 951.827 48.429L952.278 48.921C951.991 49.208 951.048 50.274 949.695 51.504L953.016 55.194C954.328 54.046 955.312 53.062 955.763 52.611L956.214 53.062C955.763 53.513 954.779 54.497 953.467 55.686L955.927 58.392L955.435 58.802L952.975 56.096C951.581 57.285 950.433 58.146 949.121 59.13L951.663 61.959ZM937.436 47.158L936.288 47.855C934.033 49.249 932.475 51.709 932.475 54.456C932.475 58.597 936.042 61.836 940.183 61.836C942.807 61.836 945.595 60.606 948.096 59.007L944.816 55.358C943.217 56.383 941.577 57.08 940.183 57.08C938.789 57.08 937.395 55.85 937.395 54.456C937.395 53.39 937.887 52.447 939.076 51.75L940.716 50.766L937.436 47.158ZM941.823 43.673L941.003 42.771C940.429 42.156 940.265 41.541 940.265 40.967C940.265 39.573 941.413 38.384 942.807 38.384C944.201 38.384 945.349 39.573 945.349 40.967C945.349 41.951 944.652 42.689 943.873 43.181L942.807 43.837L946.128 47.527L946.333 47.404C948.629 46.01 950.269 43.714 950.269 40.967C950.269 36.826 946.948 33.464 942.807 33.464C938.666 33.464 935.345 36.826 935.345 40.967C935.345 42.894 936.083 44.657 937.272 45.969L937.559 46.297L941.823 43.673ZM940.183 56.424C941.454 56.424 942.93 55.768 944.406 54.866L941.167 51.258L939.404 52.324C938.42 52.939 938.051 53.636 938.051 54.456C938.051 55.522 939.117 56.424 940.183 56.424ZM940.921 40.967C940.921 41.418 941.085 41.91 941.495 42.361L942.356 43.345L943.545 42.607C944.201 42.197 944.693 41.664 944.693 40.967C944.693 39.901 943.873 39.04 942.807 39.04C941.741 39.04 940.921 39.901 940.921 40.967ZM946.005 48.347L941.741 50.93L944.939 54.497C946.292 53.554 947.563 52.57 948.793 51.463L946.005 48.347ZM950.925 56.957C951.622 56.424 951.991 56.096 952.524 55.645L949.244 51.914C948.096 52.98 946.743 54.046 945.39 54.989L948.67 58.638C949.285 58.228 950.433 57.326 950.925 56.957ZM945.554 47.855L942.274 44.165L938.01 46.789L941.29 50.438L945.554 47.855ZM965.851 47.65C965.851 39.491 972.534 32.808 980.693 32.808C988.852 32.808 995.535 39.491 995.535 47.65C995.535 55.809 988.852 62.492 980.693 62.492C972.534 62.492 965.851 55.809 965.851 47.65ZM966.507 47.65C966.507 55.481 972.862 61.836 980.693 61.836C988.524 61.836 994.879 55.481 994.879 47.65C994.879 39.819 988.524 33.464 980.693 33.464C972.862 33.464 966.507 39.819 966.507 47.65ZM972.083 47.65C972.083 52.365 975.978 56.26 980.693 56.26C985.408 56.26 989.303 52.365 989.303 47.65C989.303 42.935 985.408 39.04 980.693 39.04C975.978 39.04 972.083 42.935 972.083 47.65ZM971.427 47.65C971.427 42.607 975.65 38.384 980.693 38.384C985.736 38.384 989.959 42.607 989.959 47.65C989.959 52.693 985.736 56.916 980.693 56.916C975.65 56.916 971.427 52.693 971.427 47.65ZM1009.58 62.492C1003.26 62.492 998.178 57.367 998.178 51.135V31.25H998.834V47.363C999.695 44.985 1001.46 42.689 1003.75 41.418V31.25H1004.41V41.008C1005.97 40.229 1007.73 39.778 1009.58 39.778C1015.85 39.778 1020.93 44.862 1020.93 51.135C1020.93 57.408 1015.85 62.492 1009.58 62.492ZM1009.58 56.916C1006.38 56.916 1003.75 54.292 1003.75 51.135V42.156C1001.01 43.837 998.834 47.24 998.834 51.176C998.834 57.039 1003.59 61.836 1009.58 61.836C1015.48 61.836 1020.28 57.039 1020.28 51.135C1020.28 45.231 1015.48 40.434 1009.58 40.434C1007.73 40.434 1005.93 40.926 1004.41 41.746V48.511C1005.39 46.625 1007.36 45.354 1009.58 45.354C1012.77 45.354 1015.36 47.937 1015.36 51.135C1015.36 54.333 1012.77 56.916 1009.58 56.916ZM1009.58 46.01C1006.71 46.01 1004.41 48.306 1004.41 51.135C1004.41 53.964 1006.71 56.26 1009.58 56.26C1012.41 56.26 1014.7 53.964 1014.7 51.135C1014.7 48.306 1012.41 46.01 1009.58 46.01ZM1030.62 40.27V63.722C1030.62 67.699 1027.34 71.02 1023.36 71.02H1020.16V70.364H1023.36C1027.01 70.364 1029.96 67.371 1029.96 63.722V40.27H1030.62ZM1020.16 64.788H1023.36C1023.93 64.788 1024.39 64.296 1024.39 63.722V40.27H1025.04V63.722C1025.04 64.624 1024.34 65.444 1023.36 65.444H1020.16V64.788ZM1025.04 31.25V38.138H1024.39V31.25H1025.04ZM1029.96 38.138V31.25H1030.62V38.138H1029.96ZM1033.55 51.135C1033.55 44.862 1038.64 39.778 1044.91 39.778C1049.91 39.778 1054.14 42.976 1055.65 47.486L1042.33 55.563C1043.11 56.014 1043.97 56.26 1044.91 56.26C1046.96 56.26 1048.72 55.03 1049.54 53.308L1050.16 53.595C1049.26 55.563 1047.25 56.916 1044.91 56.916C1043.72 56.916 1042.62 56.547 1041.71 55.932L1037.29 58.638C1039.21 60.606 1041.92 61.836 1044.91 61.836C1049.18 61.836 1052.91 59.294 1054.63 55.645L1055.2 55.932C1053.4 59.827 1049.46 62.492 1044.91 62.492C1038.64 62.492 1033.55 57.408 1033.55 51.135ZM1034.21 51.135C1034.21 52.324 1034.42 53.431 1034.74 54.497L1039.17 51.791C1039.13 51.586 1039.13 51.34 1039.13 51.135C1039.13 47.937 1041.71 45.354 1044.91 45.354C1046.1 45.354 1047.25 45.723 1048.15 46.338L1052.54 43.673C1050.61 41.664 1047.9 40.434 1044.91 40.434C1039.01 40.434 1034.21 45.231 1034.21 51.135ZM1034.99 55.112C1035.44 56.219 1036.06 57.244 1036.83 58.146L1041.14 55.522C1040.24 54.743 1039.58 53.677 1039.29 52.488L1034.99 55.112ZM1039.79 51.135V51.422L1047.54 46.707C1046.76 46.256 1045.85 46.01 1044.91 46.01C1042.08 46.01 1039.79 48.306 1039.79 51.135ZM1039.87 52.16C1040.11 53.349 1040.81 54.415 1041.75 55.153L1049.95 50.151C1049.71 48.962 1049.05 47.896 1048.11 47.117L1039.87 52.16ZM1048.72 46.789C1049.63 47.568 1050.28 48.593 1050.53 49.823L1054.87 47.158C1054.42 46.051 1053.77 45.067 1053.03 44.165L1048.72 46.789ZM1068.51 45.846V46.502H1067.32C1064.82 46.502 1062.69 48.634 1062.69 51.135C1062.69 53.636 1064.82 55.768 1067.32 55.768H1068.51V56.424H1067.32C1064.45 56.424 1062.03 54.005 1062.03 51.135C1062.03 48.265 1064.45 45.846 1067.32 45.846H1068.51ZM1068.51 40.926H1067.32C1061.71 40.926 1057.11 45.518 1057.11 51.135C1057.11 56.752 1061.71 61.344 1067.32 61.344H1068.51V62H1067.32C1061.34 62 1056.46 57.121 1056.46 51.135C1056.46 45.149 1061.34 40.27 1067.32 40.27H1068.51V40.926ZM1074.03 40.926H1070.79V40.27H1074.03V33.3H1074.69V40.27H1079.61V33.3H1080.26V40.27H1083.5V40.926H1080.26V45.846H1083.5V46.502H1080.26V62H1079.61V46.502H1074.69V62H1074.03V46.502H1070.79V45.846H1074.03V40.926ZM1079.61 40.926H1074.69V45.846H1079.61V40.926ZM1085.49 46.953C1085.49 42.976 1088.69 39.778 1092.67 39.778C1095.62 39.778 1098.16 41.582 1099.27 44.124L1098.65 44.411C1097.67 42.074 1095.33 40.434 1092.67 40.434C1089.06 40.434 1086.15 43.345 1086.15 46.953C1086.15 50.028 1088.24 52.57 1091.11 53.308L1092.91 53.759C1093.61 53.923 1094.1 54.579 1094.1 55.317C1094.1 56.219 1093.4 56.916 1092.5 56.916C1091.8 56.916 1091.23 56.506 1090.98 55.85L1091.6 55.604C1091.72 55.973 1092.05 56.26 1092.5 56.26C1093.03 56.26 1093.44 55.85 1093.44 55.317C1093.44 54.866 1093.2 54.497 1092.75 54.374L1090.9 53.923C1087.79 53.144 1085.49 50.315 1085.49 46.953ZM1085.9 58.187L1086.52 57.9C1087.5 60.237 1089.8 61.836 1092.5 61.836C1096.11 61.836 1099.02 58.925 1099.02 55.317C1099.02 52.242 1096.93 49.7 1094.06 48.962L1092.26 48.511C1091.52 48.306 1091.07 47.691 1091.07 46.953C1091.07 46.051 1091.76 45.354 1092.67 45.354C1093.36 45.354 1093.94 45.805 1094.14 46.42L1093.57 46.666C1093.44 46.297 1093.08 46.01 1092.67 46.01C1092.13 46.01 1091.72 46.42 1091.72 46.953C1091.72 47.404 1091.97 47.773 1092.42 47.896L1094.26 48.347C1097.42 49.126 1099.68 51.955 1099.68 55.317C1099.68 59.294 1096.48 62.492 1092.5 62.492C1089.55 62.492 1087.01 60.729 1085.9 58.187ZM1118.26 61.344H1129.79V62H1112.03V33.3H1112.69V55.768H1117.61V33.3H1118.26V55.768H1129.79V56.424H1118.26V61.344ZM1112.69 61.344H1117.61V56.424H1112.69V61.344ZM1142.13 62.492C1135.85 62.492 1130.77 57.408 1130.77 51.135C1130.77 44.862 1135.85 39.778 1142.13 39.778C1148.4 39.778 1153.48 44.862 1153.48 51.135C1153.48 57.408 1148.4 62.492 1142.13 62.492ZM1142.13 61.836C1148.03 61.836 1152.83 57.039 1152.83 51.135C1152.83 45.231 1148.03 40.434 1142.13 40.434C1136.22 40.434 1131.43 45.231 1131.43 51.135C1131.43 57.039 1136.22 61.836 1142.13 61.836ZM1142.13 56.916C1138.93 56.916 1136.35 54.333 1136.35 51.135C1136.35 47.937 1138.93 45.354 1142.13 45.354C1145.32 45.354 1147.91 47.937 1147.91 51.135C1147.91 54.333 1145.32 56.916 1142.13 56.916ZM1142.13 56.26C1144.96 56.26 1147.25 53.964 1147.25 51.135C1147.25 48.306 1144.96 46.01 1142.13 46.01C1139.3 46.01 1137 48.306 1137 51.135C1137 53.964 1139.3 56.26 1142.13 56.26ZM1166.55 62.492C1160.28 62.492 1155.19 57.408 1155.19 51.135C1155.19 44.862 1160.28 39.778 1166.55 39.778C1172.82 39.778 1177.91 44.862 1177.91 51.135C1177.91 57.408 1172.82 62.492 1166.55 62.492ZM1166.55 61.836C1172.45 61.836 1177.25 57.039 1177.25 51.135C1177.25 45.231 1172.45 40.434 1166.55 40.434C1160.65 40.434 1155.85 45.231 1155.85 51.135C1155.85 57.039 1160.65 61.836 1166.55 61.836ZM1166.55 56.916C1163.35 56.916 1160.77 54.333 1160.77 51.135C1160.77 47.937 1163.35 45.354 1166.55 45.354C1169.75 45.354 1172.33 47.937 1172.33 51.135C1172.33 54.333 1169.75 56.916 1166.55 56.916ZM1166.55 56.26C1169.38 56.26 1171.68 53.964 1171.68 51.135C1171.68 48.306 1169.38 46.01 1166.55 46.01C1163.72 46.01 1161.43 48.306 1161.43 51.135C1161.43 53.964 1163.72 56.26 1166.55 56.26ZM1186.42 60.155V42.115C1183.68 43.796 1181.5 47.199 1181.5 51.135C1181.5 55.071 1183.68 58.474 1186.42 60.155ZM1192.2 62.492C1190.36 62.492 1188.64 62.041 1187.08 61.262V71.02H1186.42V60.893C1184.13 59.622 1182.32 57.285 1181.5 54.948V71.02H1180.85V40.27H1181.5V47.363C1182.32 44.985 1184.13 42.607 1186.42 41.336V40.27H1187.08V41.008C1188.64 40.229 1190.36 39.778 1192.2 39.778C1198.48 39.778 1203.56 44.862 1203.56 51.135C1203.56 57.408 1198.48 62.492 1192.2 62.492ZM1192.2 56.916C1189.99 56.916 1188.06 55.645 1187.08 53.8V60.524C1188.6 61.344 1190.36 61.836 1192.2 61.836C1198.11 61.836 1202.9 57.039 1202.9 51.135C1202.9 45.231 1198.11 40.434 1192.2 40.434C1190.36 40.434 1188.6 40.885 1187.08 41.705V48.429C1188.06 46.625 1189.99 45.354 1192.2 45.354C1195.4 45.354 1197.98 47.937 1197.98 51.135C1197.98 54.333 1195.4 56.916 1192.2 56.916ZM1192.2 46.01C1189.33 46.01 1187.08 48.306 1187.08 51.135C1187.08 53.964 1189.33 56.26 1192.2 56.26C1195.03 56.26 1197.33 53.964 1197.33 51.135C1197.33 48.306 1195.03 46.01 1192.2 46.01ZM1205.53 46.953C1205.53 42.976 1208.73 39.778 1212.7 39.778C1215.65 39.778 1218.2 41.582 1219.3 44.124L1218.69 44.411C1217.7 42.074 1215.37 40.434 1212.7 40.434C1209.09 40.434 1206.18 43.345 1206.18 46.953C1206.18 50.028 1208.27 52.57 1211.14 53.308L1212.95 53.759C1213.65 53.923 1214.14 54.579 1214.14 55.317C1214.14 56.219 1213.44 56.916 1212.54 56.916C1211.84 56.916 1211.27 56.506 1211.02 55.85L1211.64 55.604C1211.76 55.973 1212.09 56.26 1212.54 56.26C1213.07 56.26 1213.48 55.85 1213.48 55.317C1213.48 54.866 1213.24 54.497 1212.78 54.374L1210.94 53.923C1207.82 53.144 1205.53 50.315 1205.53 46.953ZM1205.94 58.187L1206.55 57.9C1207.54 60.237 1209.83 61.836 1212.54 61.836C1216.15 61.836 1219.06 58.925 1219.06 55.317C1219.06 52.242 1216.97 49.7 1214.1 48.962L1212.29 48.511C1211.55 48.306 1211.1 47.691 1211.1 46.953C1211.1 46.051 1211.8 45.354 1212.7 45.354C1213.4 45.354 1213.97 45.805 1214.18 46.42L1213.6 46.666C1213.48 46.297 1213.11 46.01 1212.7 46.01C1212.17 46.01 1211.76 46.42 1211.76 46.953C1211.76 47.404 1212.01 47.773 1212.46 47.896L1214.3 48.347C1217.46 49.126 1219.71 51.955 1219.71 55.317C1219.71 59.294 1216.52 62.492 1212.54 62.492C1209.59 62.492 1207.04 60.729 1205.94 58.187ZM1250.31 61.959L1249.82 62.369L1247.2 59.499C1244.57 61.18 1241.62 62.492 1238.83 62.492C1234.37 62.492 1230.47 58.925 1230.47 54.456C1230.47 51.545 1232.23 48.757 1234.61 47.281L1235.64 46.625L1235.43 46.379C1234.2 44.985 1233.34 43.017 1233.34 40.967C1233.34 36.498 1236.99 32.808 1241.46 32.808C1245.93 32.808 1249.58 36.498 1249.58 40.967C1249.58 43.96 1247.73 46.379 1245.48 47.855L1245.23 48.019L1247.94 51.012C1249.25 49.782 1250.19 48.757 1250.48 48.429L1250.93 48.921C1250.64 49.208 1249.7 50.274 1248.35 51.504L1251.67 55.194C1252.98 54.046 1253.96 53.062 1254.41 52.611L1254.87 53.062C1254.41 53.513 1253.43 54.497 1252.12 55.686L1254.58 58.392L1254.09 58.802L1251.63 56.096C1250.23 57.285 1249.08 58.146 1247.77 59.13L1250.31 61.959ZM1236.09 47.158L1234.94 47.855C1232.68 49.249 1231.13 51.709 1231.13 54.456C1231.13 58.597 1234.69 61.836 1238.83 61.836C1241.46 61.836 1244.25 60.606 1246.75 59.007L1243.47 55.358C1241.87 56.383 1240.23 57.08 1238.83 57.08C1237.44 57.08 1236.05 55.85 1236.05 54.456C1236.05 53.39 1236.54 52.447 1237.73 51.75L1239.37 50.766L1236.09 47.158ZM1240.47 43.673L1239.65 42.771C1239.08 42.156 1238.92 41.541 1238.92 40.967C1238.92 39.573 1240.06 38.384 1241.46 38.384C1242.85 38.384 1244 39.573 1244 40.967C1244 41.951 1243.3 42.689 1242.52 43.181L1241.46 43.837L1244.78 47.527L1244.98 47.404C1247.28 46.01 1248.92 43.714 1248.92 40.967C1248.92 36.826 1245.6 33.464 1241.46 33.464C1237.32 33.464 1234 36.826 1234 40.967C1234 42.894 1234.73 44.657 1235.92 45.969L1236.21 46.297L1240.47 43.673ZM1238.83 56.424C1240.11 56.424 1241.58 55.768 1243.06 54.866L1239.82 51.258L1238.06 52.324C1237.07 52.939 1236.7 53.636 1236.7 54.456C1236.7 55.522 1237.77 56.424 1238.83 56.424ZM1239.57 40.967C1239.57 41.418 1239.74 41.91 1240.15 42.361L1241.01 43.345L1242.2 42.607C1242.85 42.197 1243.34 41.664 1243.34 40.967C1243.34 39.901 1242.52 39.04 1241.46 39.04C1240.39 39.04 1239.57 39.901 1239.57 40.967ZM1244.66 48.347L1240.39 50.93L1243.59 54.497C1244.94 53.554 1246.21 52.57 1247.44 51.463L1244.66 48.347ZM1249.58 56.957C1250.27 56.424 1250.64 56.096 1251.18 55.645L1247.9 51.914C1246.75 52.98 1245.39 54.046 1244.04 54.989L1247.32 58.638C1247.94 58.228 1249.08 57.326 1249.58 56.957ZM1244.21 47.855L1240.93 44.165L1236.66 46.789L1239.94 50.438L1244.21 47.855ZM1264.5 47.65C1264.5 39.491 1271.19 32.808 1279.34 32.808C1287.5 32.808 1294.19 39.491 1294.19 47.65C1294.19 55.809 1287.5 62.492 1279.34 62.492C1271.19 62.492 1264.5 55.809 1264.5 47.65ZM1265.16 47.65C1265.16 55.481 1271.51 61.836 1279.34 61.836C1287.18 61.836 1293.53 55.481 1293.53 47.65C1293.53 39.819 1287.18 33.464 1279.34 33.464C1271.51 33.464 1265.16 39.819 1265.16 47.65ZM1270.73 47.65C1270.73 52.365 1274.63 56.26 1279.34 56.26C1284.06 56.26 1287.95 52.365 1287.95 47.65C1287.95 42.935 1284.06 39.04 1279.34 39.04C1274.63 39.04 1270.73 42.935 1270.73 47.65ZM1270.08 47.65C1270.08 42.607 1274.3 38.384 1279.34 38.384C1284.39 38.384 1288.61 42.607 1288.61 47.65C1288.61 52.693 1284.39 56.916 1279.34 56.916C1274.3 56.916 1270.08 52.693 1270.08 47.65ZM1308.23 62.492C1301.91 62.492 1296.83 57.367 1296.83 51.135V31.25H1297.49V47.363C1298.35 44.985 1300.11 42.689 1302.41 41.418V31.25H1303.06V41.008C1304.62 40.229 1306.38 39.778 1308.23 39.778C1314.5 39.778 1319.58 44.862 1319.58 51.135C1319.58 57.408 1314.5 62.492 1308.23 62.492ZM1308.23 56.916C1305.03 56.916 1302.41 54.292 1302.41 51.135V42.156C1299.66 43.837 1297.49 47.24 1297.49 51.176C1297.49 57.039 1302.24 61.836 1308.23 61.836C1314.13 61.836 1318.93 57.039 1318.93 51.135C1318.93 45.231 1314.13 40.434 1308.23 40.434C1306.38 40.434 1304.58 40.926 1303.06 41.746V48.511C1304.05 46.625 1306.01 45.354 1308.23 45.354C1311.43 45.354 1314.01 47.937 1314.01 51.135C1314.01 54.333 1311.43 56.916 1308.23 56.916ZM1308.23 46.01C1305.36 46.01 1303.06 48.306 1303.06 51.135C1303.06 53.964 1305.36 56.26 1308.23 56.26C1311.06 56.26 1313.35 53.964 1313.35 51.135C1313.35 48.306 1311.06 46.01 1308.23 46.01ZM1329.27 40.27V63.722C1329.27 67.699 1325.99 71.02 1322.01 71.02H1318.81V70.364H1322.01C1325.66 70.364 1328.61 67.371 1328.61 63.722V40.27H1329.27ZM1318.81 64.788H1322.01C1322.59 64.788 1323.04 64.296 1323.04 63.722V40.27H1323.69V63.722C1323.69 64.624 1323 65.444 1322.01 65.444H1318.81V64.788ZM1323.69 31.25V38.138H1323.04V31.25H1323.69ZM1328.61 38.138V31.25H1329.27V38.138H1328.61ZM1332.21 51.135C1332.21 44.862 1337.29 39.778 1343.56 39.778C1348.56 39.778 1352.79 42.976 1354.3 47.486L1340.98 55.563C1341.76 56.014 1342.62 56.26 1343.56 56.26C1345.61 56.26 1347.38 55.03 1348.2 53.308L1348.81 53.595C1347.91 55.563 1345.9 56.916 1343.56 56.916C1342.37 56.916 1341.27 56.547 1340.36 55.932L1335.94 58.638C1337.86 60.606 1340.57 61.836 1343.56 61.836C1347.83 61.836 1351.56 59.294 1353.28 55.645L1353.85 55.932C1352.05 59.827 1348.11 62.492 1343.56 62.492C1337.29 62.492 1332.21 57.408 1332.21 51.135ZM1332.86 51.135C1332.86 52.324 1333.07 53.431 1333.39 54.497L1337.82 51.791C1337.78 51.586 1337.78 51.34 1337.78 51.135C1337.78 47.937 1340.36 45.354 1343.56 45.354C1344.75 45.354 1345.9 45.723 1346.8 46.338L1351.19 43.673C1349.26 41.664 1346.56 40.434 1343.56 40.434C1337.66 40.434 1332.86 45.231 1332.86 51.135ZM1333.64 55.112C1334.09 56.219 1334.71 57.244 1335.49 58.146L1339.79 55.522C1338.89 54.743 1338.23 53.677 1337.95 52.488L1333.64 55.112ZM1338.44 51.135V51.422L1346.19 46.707C1345.41 46.256 1344.51 46.01 1343.56 46.01C1340.73 46.01 1338.44 48.306 1338.44 51.135ZM1338.52 52.16C1338.77 53.349 1339.46 54.415 1340.41 55.153L1348.61 50.151C1348.36 48.962 1347.7 47.896 1346.76 47.117L1338.52 52.16ZM1347.38 46.789C1348.28 47.568 1348.93 48.593 1349.18 49.823L1353.53 47.158C1353.07 46.051 1352.42 45.067 1351.68 44.165L1347.38 46.789ZM1367.16 45.846V46.502H1365.97C1363.47 46.502 1361.34 48.634 1361.34 51.135C1361.34 53.636 1363.47 55.768 1365.97 55.768H1367.16V56.424H1365.97C1363.1 56.424 1360.69 54.005 1360.69 51.135C1360.69 48.265 1363.1 45.846 1365.97 45.846H1367.16ZM1367.16 40.926H1365.97C1360.36 40.926 1355.77 45.518 1355.77 51.135C1355.77 56.752 1360.36 61.344 1365.97 61.344H1367.16V62H1365.97C1359.99 62 1355.11 57.121 1355.11 51.135C1355.11 45.149 1359.99 40.27 1365.97 40.27H1367.16V40.926ZM1372.68 40.926H1369.44V40.27H1372.68V33.3H1373.34V40.27H1378.26V33.3H1378.91V40.27H1382.15V40.926H1378.91V45.846H1382.15V46.502H1378.91V62H1378.26V46.502H1373.34V62H1372.68V46.502H1369.44V45.846H1372.68V40.926ZM1378.26 40.926H1373.34V45.846H1378.26V40.926ZM1384.14 46.953C1384.14 42.976 1387.34 39.778 1391.32 39.778C1394.27 39.778 1396.81 41.582 1397.92 44.124L1397.3 44.411C1396.32 42.074 1393.98 40.434 1391.32 40.434C1387.71 40.434 1384.8 43.345 1384.8 46.953C1384.8 50.028 1386.89 52.57 1389.76 53.308L1391.56 53.759C1392.26 53.923 1392.75 54.579 1392.75 55.317C1392.75 56.219 1392.06 56.916 1391.15 56.916C1390.46 56.916 1389.88 56.506 1389.64 55.85L1390.25 55.604C1390.37 55.973 1390.7 56.26 1391.15 56.26C1391.69 56.26 1392.1 55.85 1392.1 55.317C1392.1 54.866 1391.85 54.497 1391.4 54.374L1389.55 53.923C1386.44 53.144 1384.14 50.315 1384.14 46.953ZM1384.55 58.187L1385.17 57.9C1386.15 60.237 1388.45 61.836 1391.15 61.836C1394.76 61.836 1397.67 58.925 1397.67 55.317C1397.67 52.242 1395.58 49.7 1392.71 48.962L1390.91 48.511C1390.17 48.306 1389.72 47.691 1389.72 46.953C1389.72 46.051 1390.42 45.354 1391.32 45.354C1392.01 45.354 1392.59 45.805 1392.79 46.42L1392.22 46.666C1392.1 46.297 1391.73 46.01 1391.32 46.01C1390.78 46.01 1390.37 46.42 1390.37 46.953C1390.37 47.404 1390.62 47.773 1391.07 47.896L1392.92 48.347C1396.07 49.126 1398.33 51.955 1398.33 55.317C1398.33 59.294 1395.13 62.492 1391.15 62.492C1388.2 62.492 1385.66 60.729 1384.55 58.187ZM1416.92 61.344H1428.44V62H1410.68V33.3H1411.34V55.768H1416.26V33.3H1416.92V55.768H1428.44V56.424H1416.92V61.344ZM1411.34 61.344H1416.26V56.424H1411.34V61.344ZM1440.78 62.492C1434.5 62.492 1429.42 57.408 1429.42 51.135C1429.42 44.862 1434.5 39.778 1440.78 39.778C1447.05 39.778 1452.13 44.862 1452.13 51.135C1452.13 57.408 1447.05 62.492 1440.78 62.492ZM1440.78 61.836C1446.68 61.836 1451.48 57.039 1451.48 51.135C1451.48 45.231 1446.68 40.434 1440.78 40.434C1434.87 40.434 1430.08 45.231 1430.08 51.135C1430.08 57.039 1434.87 61.836 1440.78 61.836ZM1440.78 56.916C1437.58 56.916 1435 54.333 1435 51.135C1435 47.937 1437.58 45.354 1440.78 45.354C1443.98 45.354 1446.56 47.937 1446.56 51.135C1446.56 54.333 1443.98 56.916 1440.78 56.916ZM1440.78 56.26C1443.61 56.26 1445.9 53.964 1445.9 51.135C1445.9 48.306 1443.61 46.01 1440.78 46.01C1437.95 46.01 1435.65 48.306 1435.65 51.135C1435.65 53.964 1437.95 56.26 1440.78 56.26ZM1465.2 62.492C1458.93 62.492 1453.84 57.408 1453.84 51.135C1453.84 44.862 1458.93 39.778 1465.2 39.778C1471.47 39.778 1476.56 44.862 1476.56 51.135C1476.56 57.408 1471.47 62.492 1465.2 62.492ZM1465.2 61.836C1471.11 61.836 1475.9 57.039 1475.9 51.135C1475.9 45.231 1471.11 40.434 1465.2 40.434C1459.3 40.434 1454.5 45.231 1454.5 51.135C1454.5 57.039 1459.3 61.836 1465.2 61.836ZM1465.2 56.916C1462 56.916 1459.42 54.333 1459.42 51.135C1459.42 47.937 1462 45.354 1465.2 45.354C1468.4 45.354 1470.98 47.937 1470.98 51.135C1470.98 54.333 1468.4 56.916 1465.2 56.916ZM1465.2 56.26C1468.03 56.26 1470.33 53.964 1470.33 51.135C1470.33 48.306 1468.03 46.01 1465.2 46.01C1462.37 46.01 1460.08 48.306 1460.08 51.135C1460.08 53.964 1462.37 56.26 1465.2 56.26ZM1485.07 60.155V42.115C1482.33 43.796 1480.15 47.199 1480.15 51.135C1480.15 55.071 1482.33 58.474 1485.07 60.155ZM1490.86 62.492C1489.01 62.492 1487.29 62.041 1485.73 61.262V71.02H1485.07V60.893C1482.78 59.622 1480.97 57.285 1480.15 54.948V71.02H1479.5V40.27H1480.15V47.363C1480.97 44.985 1482.78 42.607 1485.07 41.336V40.27H1485.73V41.008C1487.29 40.229 1489.01 39.778 1490.86 39.778C1497.13 39.778 1502.21 44.862 1502.21 51.135C1502.21 57.408 1497.13 62.492 1490.86 62.492ZM1490.86 56.916C1488.64 56.916 1486.71 55.645 1485.73 53.8V60.524C1487.25 61.344 1489.01 61.836 1490.86 61.836C1496.76 61.836 1501.56 57.039 1501.56 51.135C1501.56 45.231 1496.76 40.434 1490.86 40.434C1489.01 40.434 1487.25 40.885 1485.73 41.705V48.429C1486.71 46.625 1488.64 45.354 1490.86 45.354C1494.05 45.354 1496.64 47.937 1496.64 51.135C1496.64 54.333 1494.05 56.916 1490.86 56.916ZM1490.86 46.01C1487.99 46.01 1485.73 48.306 1485.73 51.135C1485.73 53.964 1487.99 56.26 1490.86 56.26C1493.68 56.26 1495.98 53.964 1495.98 51.135C1495.98 48.306 1493.68 46.01 1490.86 46.01ZM1504.18 46.953C1504.18 42.976 1507.38 39.778 1511.35 39.778C1514.31 39.778 1516.85 41.582 1517.96 44.124L1517.34 44.411C1516.36 42.074 1514.02 40.434 1511.35 40.434C1507.75 40.434 1504.84 43.345 1504.84 46.953C1504.84 50.028 1506.93 52.57 1509.8 53.308L1511.6 53.759C1512.3 53.923 1512.79 54.579 1512.79 55.317C1512.79 56.219 1512.09 56.916 1511.19 56.916C1510.49 56.916 1509.92 56.506 1509.67 55.85L1510.29 55.604C1510.41 55.973 1510.74 56.26 1511.19 56.26C1511.72 56.26 1512.13 55.85 1512.13 55.317C1512.13 54.866 1511.89 54.497 1511.44 54.374L1509.59 53.923C1506.48 53.144 1504.18 50.315 1504.18 46.953ZM1504.59 58.187L1505.2 57.9C1506.19 60.237 1508.48 61.836 1511.19 61.836C1514.8 61.836 1517.71 58.925 1517.71 55.317C1517.71 52.242 1515.62 49.7 1512.75 48.962L1510.94 48.511C1510.21 48.306 1509.76 47.691 1509.76 46.953C1509.76 46.051 1510.45 45.354 1511.35 45.354C1512.05 45.354 1512.63 45.805 1512.83 46.42L1512.26 46.666C1512.13 46.297 1511.76 46.01 1511.35 46.01C1510.82 46.01 1510.41 46.42 1510.41 46.953C1510.41 47.404 1510.66 47.773 1511.11 47.896L1512.95 48.347C1516.11 49.126 1518.37 51.955 1518.37 55.317C1518.37 59.294 1515.17 62.492 1511.19 62.492C1508.24 62.492 1505.7 60.729 1504.59 58.187ZM1548.97 61.959L1548.47 62.369L1545.85 59.499C1543.23 61.18 1540.27 62.492 1537.49 62.492C1533.02 62.492 1529.12 58.925 1529.12 54.456C1529.12 51.545 1530.88 48.757 1533.26 47.281L1534.29 46.625L1534.08 46.379C1532.85 44.985 1531.99 43.017 1531.99 40.967C1531.99 36.498 1535.64 32.808 1540.11 32.808C1544.58 32.808 1548.23 36.498 1548.23 40.967C1548.23 43.96 1546.38 46.379 1544.13 47.855L1543.88 48.019L1546.59 51.012C1547.9 49.782 1548.84 48.757 1549.13 48.429L1549.58 48.921C1549.29 49.208 1548.35 50.274 1547 51.504L1550.32 55.194C1551.63 54.046 1552.61 53.062 1553.07 52.611L1553.52 53.062C1553.07 53.513 1552.08 54.497 1550.77 55.686L1553.23 58.392L1552.74 58.802L1550.28 56.096C1548.88 57.285 1547.74 58.146 1546.42 59.13L1548.97 61.959ZM1534.74 47.158L1533.59 47.855C1531.34 49.249 1529.78 51.709 1529.78 54.456C1529.78 58.597 1533.34 61.836 1537.49 61.836C1540.11 61.836 1542.9 60.606 1545.4 59.007L1542.12 55.358C1540.52 56.383 1538.88 57.08 1537.49 57.08C1536.09 57.08 1534.7 55.85 1534.7 54.456C1534.7 53.39 1535.19 52.447 1536.38 51.75L1538.02 50.766L1534.74 47.158ZM1539.13 43.673L1538.31 42.771C1537.73 42.156 1537.57 41.541 1537.57 40.967C1537.57 39.573 1538.72 38.384 1540.11 38.384C1541.5 38.384 1542.65 39.573 1542.65 40.967C1542.65 41.951 1541.95 42.689 1541.18 43.181L1540.11 43.837L1543.43 47.527L1543.64 47.404C1545.93 46.01 1547.57 43.714 1547.57 40.967C1547.57 36.826 1544.25 33.464 1540.11 33.464C1535.97 33.464 1532.65 36.826 1532.65 40.967C1532.65 42.894 1533.39 44.657 1534.57 45.969L1534.86 46.297L1539.13 43.673ZM1537.49 56.424C1538.76 56.424 1540.23 55.768 1541.71 54.866L1538.47 51.258L1536.71 52.324C1535.72 52.939 1535.35 53.636 1535.35 54.456C1535.35 55.522 1536.42 56.424 1537.49 56.424ZM1538.22 40.967C1538.22 41.418 1538.39 41.91 1538.8 42.361L1539.66 43.345L1540.85 42.607C1541.5 42.197 1542 41.664 1542 40.967C1542 39.901 1541.18 39.04 1540.11 39.04C1539.04 39.04 1538.22 39.901 1538.22 40.967ZM1543.31 48.347L1539.04 50.93L1542.24 54.497C1543.59 53.554 1544.87 52.57 1546.1 51.463L1543.31 48.347ZM1548.23 56.957C1548.92 56.424 1549.29 56.096 1549.83 55.645L1546.55 51.914C1545.4 52.98 1544.05 54.046 1542.69 54.989L1545.97 58.638C1546.59 58.228 1547.74 57.326 1548.23 56.957ZM1542.86 47.855L1539.58 44.165L1535.31 46.789L1538.59 50.438L1542.86 47.855ZM1563.15 47.65C1563.15 39.491 1569.84 32.808 1578 32.808C1586.15 32.808 1592.84 39.491 1592.84 47.65C1592.84 55.809 1586.15 62.492 1578 62.492C1569.84 62.492 1563.15 55.809 1563.15 47.65ZM1563.81 47.65C1563.81 55.481 1570.16 61.836 1578 61.836C1585.83 61.836 1592.18 55.481 1592.18 47.65C1592.18 39.819 1585.83 33.464 1578 33.464C1570.16 33.464 1563.81 39.819 1563.81 47.65ZM1569.39 47.65C1569.39 52.365 1573.28 56.26 1578 56.26C1582.71 56.26 1586.61 52.365 1586.61 47.65C1586.61 42.935 1582.71 39.04 1578 39.04C1573.28 39.04 1569.39 42.935 1569.39 47.65ZM1568.73 47.65C1568.73 42.607 1572.95 38.384 1578 38.384C1583.04 38.384 1587.26 42.607 1587.26 47.65C1587.26 52.693 1583.04 56.916 1578 56.916C1572.95 56.916 1568.73 52.693 1568.73 47.65ZM1606.88 62.492C1600.56 62.492 1595.48 57.367 1595.48 51.135V31.25H1596.14V47.363C1597 44.985 1598.76 42.689 1601.06 41.418V31.25H1601.71V41.008C1603.27 40.229 1605.03 39.778 1606.88 39.778C1613.15 39.778 1618.24 44.862 1618.24 51.135C1618.24 57.408 1613.15 62.492 1606.88 62.492ZM1606.88 56.916C1603.68 56.916 1601.06 54.292 1601.06 51.135V42.156C1598.31 43.837 1596.14 47.24 1596.14 51.176C1596.14 57.039 1600.89 61.836 1606.88 61.836C1612.78 61.836 1617.58 57.039 1617.58 51.135C1617.58 45.231 1612.78 40.434 1606.88 40.434C1605.03 40.434 1603.23 40.926 1601.71 41.746V48.511C1602.7 46.625 1604.66 45.354 1606.88 45.354C1610.08 45.354 1612.66 47.937 1612.66 51.135C1612.66 54.333 1610.08 56.916 1606.88 56.916ZM1606.88 46.01C1604.01 46.01 1601.71 48.306 1601.71 51.135C1601.71 53.964 1604.01 56.26 1606.88 56.26C1609.71 56.26 1612 53.964 1612 51.135C1612 48.306 1609.71 46.01 1606.88 46.01ZM1627.92 40.27V63.722C1627.92 67.699 1624.64 71.02 1620.66 71.02H1617.47V70.364H1620.66C1624.31 70.364 1627.26 67.371 1627.26 63.722V40.27H1627.92ZM1617.47 64.788H1620.66C1621.24 64.788 1621.69 64.296 1621.69 63.722V40.27H1622.34V63.722C1622.34 64.624 1621.65 65.444 1620.66 65.444H1617.47V64.788ZM1622.34 31.25V38.138H1621.69V31.25H1622.34ZM1627.26 38.138V31.25H1627.92V38.138H1627.26ZM1630.86 51.135C1630.86 44.862 1635.94 39.778 1642.21 39.778C1647.22 39.778 1651.44 42.976 1652.96 47.486L1639.63 55.563C1640.41 56.014 1641.27 56.26 1642.21 56.26C1644.26 56.26 1646.03 55.03 1646.85 53.308L1647.46 53.595C1646.56 55.563 1644.55 56.916 1642.21 56.916C1641.03 56.916 1639.92 56.547 1639.02 55.932L1634.59 58.638C1636.52 60.606 1639.22 61.836 1642.21 61.836C1646.48 61.836 1650.21 59.294 1651.93 55.645L1652.51 55.932C1650.7 59.827 1646.77 62.492 1642.21 62.492C1635.94 62.492 1630.86 57.408 1630.86 51.135ZM1631.51 51.135C1631.51 52.324 1631.72 53.431 1632.05 54.497L1636.47 51.791C1636.43 51.586 1636.43 51.34 1636.43 51.135C1636.43 47.937 1639.02 45.354 1642.21 45.354C1643.4 45.354 1644.55 45.723 1645.45 46.338L1649.84 43.673C1647.91 41.664 1645.21 40.434 1642.21 40.434C1636.31 40.434 1631.51 45.231 1631.51 51.135ZM1632.29 55.112C1632.74 56.219 1633.36 57.244 1634.14 58.146L1638.44 55.522C1637.54 54.743 1636.88 53.677 1636.6 52.488L1632.29 55.112ZM1637.09 51.135V51.422L1644.84 46.707C1644.06 46.256 1643.16 46.01 1642.21 46.01C1639.39 46.01 1637.09 48.306 1637.09 51.135ZM1637.17 52.16C1637.42 53.349 1638.11 54.415 1639.06 55.153L1647.26 50.151C1647.01 48.962 1646.36 47.896 1645.41 47.117L1637.17 52.16ZM1646.03 46.789C1646.93 47.568 1647.59 48.593 1647.83 49.823L1652.18 47.158C1651.73 46.051 1651.07 45.067 1650.33 44.165L1646.03 46.789ZM1665.81 45.846V46.502H1664.63C1662.12 46.502 1659.99 48.634 1659.99 51.135C1659.99 53.636 1662.12 55.768 1664.63 55.768H1665.81V56.424H1664.63C1661.76 56.424 1659.34 54.005 1659.34 51.135C1659.34 48.265 1661.76 45.846 1664.63 45.846H1665.81ZM1665.81 40.926H1664.63C1659.01 40.926 1654.42 45.518 1654.42 51.135C1654.42 56.752 1659.01 61.344 1664.63 61.344H1665.81V62H1664.63C1658.64 62 1653.76 57.121 1653.76 51.135C1653.76 45.149 1658.64 40.27 1664.63 40.27H1665.81V40.926ZM1671.33 40.926H1668.09V40.27H1671.33V33.3H1671.99V40.27H1676.91V33.3H1677.57V40.27H1680.8V40.926H1677.57V45.846H1680.8V46.502H1677.57V62H1676.91V46.502H1671.99V62H1671.33V46.502H1668.09V45.846H1671.33V40.926ZM1676.91 40.926H1671.99V45.846H1676.91V40.926ZM1682.79 46.953C1682.79 42.976 1685.99 39.778 1689.97 39.778C1692.92 39.778 1695.46 41.582 1696.57 44.124L1695.95 44.411C1694.97 42.074 1692.63 40.434 1689.97 40.434C1686.36 40.434 1683.45 43.345 1683.45 46.953C1683.45 50.028 1685.54 52.57 1688.41 53.308L1690.21 53.759C1690.91 53.923 1691.4 54.579 1691.4 55.317C1691.4 56.219 1690.71 56.916 1689.8 56.916C1689.11 56.916 1688.53 56.506 1688.29 55.85L1688.9 55.604C1689.03 55.973 1689.35 56.26 1689.8 56.26C1690.34 56.26 1690.75 55.85 1690.75 55.317C1690.75 54.866 1690.5 54.497 1690.05 54.374L1688.21 53.923C1685.09 53.144 1682.79 50.315 1682.79 46.953ZM1683.2 58.187L1683.82 57.9C1684.8 60.237 1687.1 61.836 1689.8 61.836C1693.41 61.836 1696.32 58.925 1696.32 55.317C1696.32 52.242 1694.23 49.7 1691.36 48.962L1689.56 48.511C1688.82 48.306 1688.37 47.691 1688.37 46.953C1688.37 46.051 1689.07 45.354 1689.97 45.354C1690.67 45.354 1691.24 45.805 1691.44 46.42L1690.87 46.666C1690.75 46.297 1690.38 46.01 1689.97 46.01C1689.44 46.01 1689.03 46.42 1689.03 46.953C1689.03 47.404 1689.27 47.773 1689.72 47.896L1691.57 48.347C1694.72 49.126 1696.98 51.955 1696.98 55.317C1696.98 59.294 1693.78 62.492 1689.8 62.492C1686.85 62.492 1684.31 60.729 1683.2 58.187ZM1715.57 61.344H1727.09V62H1709.33V33.3H1709.99V55.768H1714.91V33.3H1715.57V55.768H1727.09V56.424H1715.57V61.344ZM1709.99 61.344H1714.91V56.424H1709.99V61.344ZM1739.43 62.492C1733.16 62.492 1728.07 57.408 1728.07 51.135C1728.07 44.862 1733.16 39.778 1739.43 39.778C1745.7 39.778 1750.79 44.862 1750.79 51.135C1750.79 57.408 1745.7 62.492 1739.43 62.492ZM1739.43 61.836C1745.33 61.836 1750.13 57.039 1750.13 51.135C1750.13 45.231 1745.33 40.434 1739.43 40.434C1733.52 40.434 1728.73 45.231 1728.73 51.135C1728.73 57.039 1733.52 61.836 1739.43 61.836ZM1739.43 56.916C1736.23 56.916 1733.65 54.333 1733.65 51.135C1733.65 47.937 1736.23 45.354 1739.43 45.354C1742.63 45.354 1745.21 47.937 1745.21 51.135C1745.21 54.333 1742.63 56.916 1739.43 56.916ZM1739.43 56.26C1742.26 56.26 1744.55 53.964 1744.55 51.135C1744.55 48.306 1742.26 46.01 1739.43 46.01C1736.6 46.01 1734.3 48.306 1734.3 51.135C1734.3 53.964 1736.6 56.26 1739.43 56.26ZM1763.85 62.492C1757.58 62.492 1752.5 57.408 1752.5 51.135C1752.5 44.862 1757.58 39.778 1763.85 39.778C1770.13 39.778 1775.21 44.862 1775.21 51.135C1775.21 57.408 1770.13 62.492 1763.85 62.492ZM1763.85 61.836C1769.76 61.836 1774.55 57.039 1774.55 51.135C1774.55 45.231 1769.76 40.434 1763.85 40.434C1757.95 40.434 1753.15 45.231 1753.15 51.135C1753.15 57.039 1757.95 61.836 1763.85 61.836ZM1763.85 56.916C1760.65 56.916 1758.07 54.333 1758.07 51.135C1758.07 47.937 1760.65 45.354 1763.85 45.354C1767.05 45.354 1769.63 47.937 1769.63 51.135C1769.63 54.333 1767.05 56.916 1763.85 56.916ZM1763.85 56.26C1766.68 56.26 1768.98 53.964 1768.98 51.135C1768.98 48.306 1766.68 46.01 1763.85 46.01C1761.02 46.01 1758.73 48.306 1758.73 51.135C1758.73 53.964 1761.02 56.26 1763.85 56.26ZM1783.73 60.155V42.115C1780.98 43.796 1778.81 47.199 1778.81 51.135C1778.81 55.071 1780.98 58.474 1783.73 60.155ZM1789.51 62.492C1787.66 62.492 1785.94 62.041 1784.38 61.262V71.02H1783.73V60.893C1781.43 59.622 1779.63 57.285 1778.81 54.948V71.02H1778.15V40.27H1778.81V47.363C1779.63 44.985 1781.43 42.607 1783.73 41.336V40.27H1784.38V41.008C1785.94 40.229 1787.66 39.778 1789.51 39.778C1795.78 39.778 1800.86 44.862 1800.86 51.135C1800.86 57.408 1795.78 62.492 1789.51 62.492ZM1789.51 56.916C1787.29 56.916 1785.37 55.645 1784.38 53.8V60.524C1785.9 61.344 1787.66 61.836 1789.51 61.836C1795.41 61.836 1800.21 57.039 1800.21 51.135C1800.21 45.231 1795.41 40.434 1789.51 40.434C1787.66 40.434 1785.9 40.885 1784.38 41.705V48.429C1785.37 46.625 1787.29 45.354 1789.51 45.354C1792.7 45.354 1795.29 47.937 1795.29 51.135C1795.29 54.333 1792.7 56.916 1789.51 56.916ZM1789.51 46.01C1786.64 46.01 1784.38 48.306 1784.38 51.135C1784.38 53.964 1786.64 56.26 1789.51 56.26C1792.34 56.26 1794.63 53.964 1794.63 51.135C1794.63 48.306 1792.34 46.01 1789.51 46.01ZM1802.83 46.953C1802.83 42.976 1806.03 39.778 1810.01 39.778C1812.96 39.778 1815.5 41.582 1816.61 44.124L1815.99 44.411C1815.01 42.074 1812.67 40.434 1810.01 40.434C1806.4 40.434 1803.49 43.345 1803.49 46.953C1803.49 50.028 1805.58 52.57 1808.45 53.308L1810.25 53.759C1810.95 53.923 1811.44 54.579 1811.44 55.317C1811.44 56.219 1810.74 56.916 1809.84 56.916C1809.14 56.916 1808.57 56.506 1808.32 55.85L1808.94 55.604C1809.06 55.973 1809.39 56.26 1809.84 56.26C1810.37 56.26 1810.78 55.85 1810.78 55.317C1810.78 54.866 1810.54 54.497 1810.09 54.374L1808.24 53.923C1805.13 53.144 1802.83 50.315 1802.83 46.953ZM1803.24 58.187L1803.86 57.9C1804.84 60.237 1807.14 61.836 1809.84 61.836C1813.45 61.836 1816.36 58.925 1816.36 55.317C1816.36 52.242 1814.27 49.7 1811.4 48.962L1809.6 48.511C1808.86 48.306 1808.41 47.691 1808.41 46.953C1808.41 46.051 1809.1 45.354 1810.01 45.354C1810.7 45.354 1811.28 45.805 1811.48 46.42L1810.91 46.666C1810.78 46.297 1810.42 46.01 1810.01 46.01C1809.47 46.01 1809.06 46.42 1809.06 46.953C1809.06 47.404 1809.31 47.773 1809.76 47.896L1811.6 48.347C1814.76 49.126 1817.02 51.955 1817.02 55.317C1817.02 59.294 1813.82 62.492 1809.84 62.492C1806.89 62.492 1804.35 60.729 1803.24 58.187ZM1847.62 61.959L1847.13 62.369L1844.5 59.499C1841.88 61.18 1838.93 62.492 1836.14 62.492C1831.67 62.492 1827.77 58.925 1827.77 54.456C1827.77 51.545 1829.54 48.757 1831.91 47.281L1832.94 46.625L1832.73 46.379C1831.5 44.985 1830.64 43.017 1830.64 40.967C1830.64 36.498 1834.29 32.808 1838.76 32.808C1843.23 32.808 1846.88 36.498 1846.88 40.967C1846.88 43.96 1845.03 46.379 1842.78 47.855L1842.53 48.019L1845.24 51.012C1846.55 49.782 1847.49 48.757 1847.78 48.429L1848.23 48.921C1847.95 49.208 1847 50.274 1845.65 51.504L1848.97 55.194C1850.28 54.046 1851.27 53.062 1851.72 52.611L1852.17 53.062C1851.72 53.513 1850.73 54.497 1849.42 55.686L1851.88 58.392L1851.39 58.802L1848.93 56.096C1847.54 57.285 1846.39 58.146 1845.08 59.13L1847.62 61.959ZM1833.39 47.158L1832.24 47.855C1829.99 49.249 1828.43 51.709 1828.43 54.456C1828.43 58.597 1832 61.836 1836.14 61.836C1838.76 61.836 1841.55 60.606 1844.05 59.007L1840.77 55.358C1839.17 56.383 1837.53 57.08 1836.14 57.08C1834.74 57.08 1833.35 55.85 1833.35 54.456C1833.35 53.39 1833.84 52.447 1835.03 51.75L1836.67 50.766L1833.39 47.158ZM1837.78 43.673L1836.96 42.771C1836.38 42.156 1836.22 41.541 1836.22 40.967C1836.22 39.573 1837.37 38.384 1838.76 38.384C1840.16 38.384 1841.3 39.573 1841.3 40.967C1841.3 41.951 1840.61 42.689 1839.83 43.181L1838.76 43.837L1842.08 47.527L1842.29 47.404C1844.58 46.01 1846.22 43.714 1846.22 40.967C1846.22 36.826 1842.9 33.464 1838.76 33.464C1834.62 33.464 1831.3 36.826 1831.3 40.967C1831.3 42.894 1832.04 44.657 1833.23 45.969L1833.51 46.297L1837.78 43.673ZM1836.14 56.424C1837.41 56.424 1838.88 55.768 1840.36 54.866L1837.12 51.258L1835.36 52.324C1834.37 52.939 1834.01 53.636 1834.01 54.456C1834.01 55.522 1835.07 56.424 1836.14 56.424ZM1836.88 40.967C1836.88 41.418 1837.04 41.91 1837.45 42.361L1838.31 43.345L1839.5 42.607C1840.16 42.197 1840.65 41.664 1840.65 40.967C1840.65 39.901 1839.83 39.04 1838.76 39.04C1837.7 39.04 1836.88 39.901 1836.88 40.967ZM1841.96 48.347L1837.7 50.93L1840.89 54.497C1842.25 53.554 1843.52 52.57 1844.75 51.463L1841.96 48.347ZM1846.88 56.957C1847.58 56.424 1847.95 56.096 1848.48 55.645L1845.2 51.914C1844.05 52.98 1842.7 54.046 1841.34 54.989L1844.62 58.638C1845.24 58.228 1846.39 57.326 1846.88 56.957ZM1841.51 47.855L1838.23 44.165L1833.96 46.789L1837.24 50.438L1841.51 47.855ZM1861.81 47.65C1861.81 39.491 1868.49 32.808 1876.65 32.808C1884.81 32.808 1891.49 39.491 1891.49 47.65C1891.49 55.809 1884.81 62.492 1876.65 62.492C1868.49 62.492 1861.81 55.809 1861.81 47.65ZM1862.46 47.65C1862.46 55.481 1868.82 61.836 1876.65 61.836C1884.48 61.836 1890.83 55.481 1890.83 47.65C1890.83 39.819 1884.48 33.464 1876.65 33.464C1868.82 33.464 1862.46 39.819 1862.46 47.65ZM1868.04 47.65C1868.04 52.365 1871.93 56.26 1876.65 56.26C1881.36 56.26 1885.26 52.365 1885.26 47.65C1885.26 42.935 1881.36 39.04 1876.65 39.04C1871.93 39.04 1868.04 42.935 1868.04 47.65ZM1867.38 47.65C1867.38 42.607 1871.6 38.384 1876.65 38.384C1881.69 38.384 1885.91 42.607 1885.91 47.65C1885.91 52.693 1881.69 56.916 1876.65 56.916C1871.6 56.916 1867.38 52.693 1867.38 47.65ZM1905.53 62.492C1899.22 62.492 1894.13 57.367 1894.13 51.135V31.25H1894.79V47.363C1895.65 44.985 1897.41 42.689 1899.71 41.418V31.25H1900.36V41.008C1901.92 40.229 1903.69 39.778 1905.53 39.778C1911.8 39.778 1916.89 44.862 1916.89 51.135C1916.89 57.408 1911.8 62.492 1905.53 62.492ZM1905.53 56.916C1902.33 56.916 1899.71 54.292 1899.71 51.135V42.156C1896.96 43.837 1894.79 47.24 1894.79 51.176C1894.79 57.039 1899.54 61.836 1905.53 61.836C1911.43 61.836 1916.23 57.039 1916.23 51.135C1916.23 45.231 1911.43 40.434 1905.53 40.434C1903.69 40.434 1901.88 40.926 1900.36 41.746V48.511C1901.35 46.625 1903.32 45.354 1905.53 45.354C1908.73 45.354 1911.31 47.937 1911.31 51.135C1911.31 54.333 1908.73 56.916 1905.53 56.916ZM1905.53 46.01C1902.66 46.01 1900.36 48.306 1900.36 51.135C1900.36 53.964 1902.66 56.26 1905.53 56.26C1908.36 56.26 1910.66 53.964 1910.66 51.135C1910.66 48.306 1908.36 46.01 1905.53 46.01ZM1926.57 40.27V63.722C1926.57 67.699 1923.29 71.02 1919.31 71.02H1916.12V70.364H1919.31C1922.96 70.364 1925.92 67.371 1925.92 63.722V40.27H1926.57ZM1916.12 64.788H1919.31C1919.89 64.788 1920.34 64.296 1920.34 63.722V40.27H1921V63.722C1921 64.624 1920.3 65.444 1919.31 65.444H1916.12V64.788ZM1921 31.25V38.138H1920.34V31.25H1921ZM1925.92 38.138V31.25H1926.57V38.138H1925.92ZM1929.51 51.135C1929.51 44.862 1934.59 39.778 1940.87 39.778C1945.87 39.778 1950.09 42.976 1951.61 47.486L1938.28 55.563C1939.06 56.014 1939.92 56.26 1940.87 56.26C1942.92 56.26 1944.68 55.03 1945.5 53.308L1946.11 53.595C1945.21 55.563 1943.2 56.916 1940.87 56.916C1939.68 56.916 1938.57 56.547 1937.67 55.932L1933.24 58.638C1935.17 60.606 1937.87 61.836 1940.87 61.836C1945.13 61.836 1948.86 59.294 1950.58 55.645L1951.16 55.932C1949.35 59.827 1945.42 62.492 1940.87 62.492C1934.59 62.492 1929.51 57.408 1929.51 51.135ZM1930.16 51.135C1930.16 52.324 1930.37 53.431 1930.7 54.497L1935.13 51.791C1935.08 51.586 1935.08 51.34 1935.08 51.135C1935.08 47.937 1937.67 45.354 1940.87 45.354C1942.05 45.354 1943.2 45.723 1944.1 46.338L1948.49 43.673C1946.56 41.664 1943.86 40.434 1940.87 40.434C1934.96 40.434 1930.16 45.231 1930.16 51.135ZM1930.94 55.112C1931.39 56.219 1932.01 57.244 1932.79 58.146L1937.09 55.522C1936.19 54.743 1935.54 53.677 1935.25 52.488L1930.94 55.112ZM1935.74 51.135V51.422L1943.49 46.707C1942.71 46.256 1941.81 46.01 1940.87 46.01C1938.04 46.01 1935.74 48.306 1935.74 51.135ZM1935.82 52.16C1936.07 53.349 1936.77 54.415 1937.71 55.153L1945.91 50.151C1945.66 48.962 1945.01 47.896 1944.06 47.117L1935.82 52.16ZM1944.68 46.789C1945.58 47.568 1946.24 48.593 1946.48 49.823L1950.83 47.158C1950.38 46.051 1949.72 45.067 1948.98 44.165L1944.68 46.789ZM1964.47 45.846V46.502H1963.28C1960.78 46.502 1958.64 48.634 1958.64 51.135C1958.64 53.636 1960.78 55.768 1963.28 55.768H1964.47V56.424H1963.28C1960.41 56.424 1957.99 54.005 1957.99 51.135C1957.99 48.265 1960.41 45.846 1963.28 45.846H1964.47ZM1964.47 40.926H1963.28C1957.66 40.926 1953.07 45.518 1953.07 51.135C1953.07 56.752 1957.66 61.344 1963.28 61.344H1964.47V62H1963.28C1957.29 62 1952.41 57.121 1952.41 51.135C1952.41 45.149 1957.29 40.27 1963.28 40.27H1964.47V40.926ZM1969.98 40.926H1966.75V40.27H1969.98V33.3H1970.64V40.27H1975.56V33.3H1976.22V40.27H1979.46V40.926H1976.22V45.846H1979.46V46.502H1976.22V62H1975.56V46.502H1970.64V62H1969.98V46.502H1966.75V45.846H1969.98V40.926ZM1975.56 40.926H1970.64V45.846H1975.56V40.926ZM1981.44 46.953C1981.44 42.976 1984.64 39.778 1988.62 39.778C1991.57 39.778 1994.11 41.582 1995.22 44.124L1994.61 44.411C1993.62 42.074 1991.28 40.434 1988.62 40.434C1985.01 40.434 1982.1 43.345 1982.1 46.953C1982.1 50.028 1984.19 52.57 1987.06 53.308L1988.87 53.759C1989.56 53.923 1990.05 54.579 1990.05 55.317C1990.05 56.219 1989.36 56.916 1988.46 56.916C1987.76 56.916 1987.18 56.506 1986.94 55.85L1987.55 55.604C1987.68 55.973 1988 56.26 1988.46 56.26C1988.99 56.26 1989.4 55.85 1989.4 55.317C1989.4 54.866 1989.15 54.497 1988.7 54.374L1986.86 53.923C1983.74 53.144 1981.44 50.315 1981.44 46.953ZM1981.85 58.187L1982.47 57.9C1983.45 60.237 1985.75 61.836 1988.46 61.836C1992.06 61.836 1994.97 58.925 1994.97 55.317C1994.97 52.242 1992.88 49.7 1990.01 48.962L1988.21 48.511C1987.47 48.306 1987.02 47.691 1987.02 46.953C1987.02 46.051 1987.72 45.354 1988.62 45.354C1989.32 45.354 1989.89 45.805 1990.1 46.42L1989.52 46.666C1989.4 46.297 1989.03 46.01 1988.62 46.01C1988.09 46.01 1987.68 46.42 1987.68 46.953C1987.68 47.404 1987.92 47.773 1988.37 47.896L1990.22 48.347C1993.38 49.126 1995.63 51.955 1995.63 55.317C1995.63 59.294 1992.43 62.492 1988.46 62.492C1985.5 62.492 1982.96 60.729 1981.85 58.187Z" fill="white"/>
</g>
<defs>
<clipPath id="clip0_0_26">
<rect width="1940" height="343" fill="white"/>
</clipPath>
</defs>
</svg>
